<?xml version="1.0" encoding="utf-8"?>
<!-- Generator: Adobe Illustrator 18.0.0, SVG Export Plug-In . SVG Version: 6.00 Build 0)  -->
<!DOCTYPE svg PUBLIC "-//W3C//DTD SVG 1.1//EN" "http://www.w3.org/Graphics/SVG/1.1/DTD/svg11.dtd">
<svg version="1.1" id="Layer_1" xmlns="http://www.w3.org/2000/svg" xmlns:xlink="http://www.w3.org/1999/xlink" x="0px" y="0px"
	 viewBox="0 0 1792 1792" enable-background="new 0 0 1792 1792" xml:space="preserve">
<path fill="#FFFFFF" d="M1792,866.5v59c0,2.9-1.5,5.9-1.5,8.8c-2.9,25.1-4.4,51.6-8.8,76.7c-13.3,82.6-44.2,159.3-88.5,231.6
	c-67.8,107.7-157.8,190.3-272.9,246.3c-66.4,32.4-135.7,53.1-209.4,61.9c-16.2,1.5-32.4,2.9-48.7,5.9H532.4c-2.9,0-5.9-1.5-8.8-1.5
	c-63.4-4.4-123.9-19.2-182.9-44.2c-126.8-56-221.2-146-283.2-268.4c-28-54.6-44.2-113.6-51.6-174c-1.5-14.7-2.9-29.5-5.9-44.2
	c0-19.2,0-38.3,0-57.5c0-2.9,1.5-5.9,1.5-8.8c2.9-54.6,14.7-107.7,33.9-159.3c53.1-138.6,146-240.4,278.8-306.8
	c69.3-35.4,143.1-53.1,219.8-57.5c36.9-1.5,75.2,0,112.1,4.4c2.9,0,8.8-1.5,10.3-2.9c53.1-54.6,115-98.8,182.9-132.7
	c66.4-32.4,137.2-53.1,210.9-61.9c17.7-1.5,35.4-2.9,51.6-5.9h53.1c2.9,0,7.4,1.5,10.3,1.5c26.5,2.9,53.1,4.4,79.6,8.8
	c82.6,13.3,159.3,42.8,230.1,87c109.1,67.8,191.7,157.8,247.8,272.9c32.4,66.4,53.1,137.2,61.9,209.4
	C1789.1,832.6,1790.5,850.3,1792,866.5 M790.5,484.5c1.5,1.5,1.5,1.5,1.5,2.9c36.9,17.7,72.3,39.8,104.7,63.4
	c1.5,1.5,7.4,1.5,10.3,0c91.4-57.5,190.3-78.2,296.5-59c104.7,19.2,188.8,70.8,253.7,153.4c73.7,94.4,101.8,200.6,81.1,318.6
	c-13.3,79.6-45.7,150.4-98.8,209.4c-98.8,109.1-221.2,153.4-367.2,134.2c-90-10.3-166.7-50.1-231.6-113.6
	c-82.6-82.6-165.2-165.2-246.3-247.8C584.1,935.8,570.8,927,556,924c-28-2.9-53.1,10.3-64.9,35.4c-10.3,22.1-8.8,47.2,13.3,69.3
	c91.4,90,182.9,181.4,274.3,271.4c16.2,14.7,32.4,29.5,50.1,42.8c66.4,48.7,141.6,75.2,224.2,85.5c63.4,8.8,128.3,7.4,190.3-7.4
	c120.9-26.5,219.8-88.5,297.9-182.9c64.9-78.2,104.7-168.1,118-269.9c7.4-57.5,5.9-116.5-4.4-172.6c-17.7-92.9-57.5-177-120.9-247.8
	C1413,410.8,1261,350.3,1081.1,365c-69.3,5.9-135.7,25.1-197.6,57.5C851,440.3,818.6,460.9,790.5,484.5 M746.3,1431.4
	c-2.9-2.9-5.9-4.4-7.4-7.4c-36.9-35.4-75.2-70.8-112.1-106.2c-7.4-7.4-13.3-10.3-23.6-10.3c-36.9,1.5-75.2,1.5-112.1-7.4
	c-184.4-41.3-292-240.4-224.2-415.9c53.1-138.6,200.6-222.7,346.6-197.6c64.9,11.8,122.4,39.8,169.6,88.5
	c57.5,59,116.5,116.5,174,175.5c13.3,13.3,28,19.2,47.2,16.2c23.6-2.9,42.8-14.7,51.6-38.3c8.8-22.1,4.4-44.2-13.3-61.9
	c-60.5-61.9-120.9-125.4-184.4-184.4C736,567.1,590,533.2,430.7,581.8c-213.9,66.4-340.7,289.1-292,508.8
	c44.2,200.6,219.8,340.7,424.8,340.7c57.5,0,115,0,171.1,0C738.9,1431.4,741.9,1431.4,746.3,1431.4"/>
</svg>
