<?xml version="1.0" encoding="utf-8"?>
<!-- Generator: Adobe Illustrator 18.0.0, SVG Export Plug-In . SVG Version: 6.00 Build 0)  -->
<!DOCTYPE svg PUBLIC "-//W3C//DTD SVG 1.1//EN" "http://www.w3.org/Graphics/SVG/1.1/DTD/svg11.dtd">
<svg version="1.1" id="Layer_1" xmlns="http://www.w3.org/2000/svg" xmlns:xlink="http://www.w3.org/1999/xlink" x="0px" y="0px"
	 viewBox="0 0 1792 1792" enable-background="new 0 0 1792 1792" xml:space="preserve">
<g>
	<path fill="#FFFFFF" d="M1758.2,816.2L975.8,33.8c-45-45.1-118.1-45.1-163.2,0L650.1,196.3l206.1,206.1
		c47.9-16.2,102.8-5.3,141,32.9c38.4,38.4,49.2,93.8,32.6,141.9l198.6,198.6c48.1-16.6,103.5-5.9,141.9,32.6
		c53.6,53.6,53.6,140.5,0,194.2c-53.7,53.7-140.6,53.7-194.3,0c-40.3-40.4-50.3-99.7-29.9-149.3L960.9,667.9v487.5
		c13.1,6.5,25.4,15.1,36.3,26c53.6,53.6,53.6,140.5,0,194.2c-53.6,53.6-140.6,53.6-194.2,0c-53.6-53.7-53.6-140.6,0-194.2
		c13.3-13.2,28.6-23.3,45-30v-492c-16.4-6.7-31.7-16.6-45-30c-40.6-40.6-50.4-100.2-29.6-150.1L570.3,276.1L33.8,812.5
		c-45.1,45.1-45.1,118.2,0,163.3l782.4,782.4c45,45.1,118.1,45.1,163.2,0l778.7-778.7C1803.3,934.3,1803.3,861.2,1758.2,816.2z"/>
</g>
</svg>
