<?xml version="1.0" encoding="utf-8"?>
<!-- Generator: Adobe Illustrator 18.0.0, SVG Export Plug-In . SVG Version: 6.00 Build 0)  -->
<!DOCTYPE svg PUBLIC "-//W3C//DTD SVG 1.1//EN" "http://www.w3.org/Graphics/SVG/1.1/DTD/svg11.dtd">
<svg version="1.1" id="Layer_1" xmlns="http://www.w3.org/2000/svg" xmlns:xlink="http://www.w3.org/1999/xlink" x="0px" y="0px"
	 viewBox="0 0 1000 1000" enable-background="new 0 0 1000 1000" xml:space="preserve">
<g>
	<g>
		<path fill="#FFFFFF" d="M351.3,551.3L324,494.1c-6.5-13.6-13.2-28.9-15.5-36.1l-0.5,0.5c0.9,10.2,1.1,23.1,1.2,33.8l0.7,59h-19.9
			V429.5H313l29.6,59.5c5.6,11.3,10.9,25.7,12.5,31.3l0.5-0.5c-0.5-6.2-1.8-23.6-1.8-34.7l-0.4-55.6h19.2v121.8H351.3z"/>
		<path fill="#FFFFFF" d="M408.9,512.1v1.4c0,12.3,4.6,25.3,22,25.3c8.3,0,15.5-3,22.2-8.8l7.6,11.8c-9.3,7.9-20.1,11.8-32,11.8
			c-25.2,0-41-18.1-41-46.6c0-15.7,3.3-26,11.1-34.8c7.2-8.3,16-12,27.3-12c8.8,0,16.9,2.3,24.5,9.2c7.7,7,11.6,18,11.6,38.7v4
			H408.9z M425.9,474.8c-10.9,0-16.9,8.6-16.9,23.1H442C442,483.4,435.6,474.8,425.9,474.8z"/>
		<path fill="#FFFFFF" d="M565,551.7h-18.1l-10.9-41c-2.8-10.6-5.8-24.3-5.8-24.3h-0.4c0,0-1.4,8.8-5.8,25.2l-10.7,40.1h-18.1
			l-24.3-88.2l19.2-2.6l9.7,43.1c2.5,11.1,4.6,23.4,4.6,23.4h0.5c0,0,1.8-11.6,5.1-23.9l11.4-41.2h19l10,40.1
			c3.7,14.4,5.6,25.3,5.6,25.3h0.5c0,0,2.1-13.6,4.4-23.9l9.2-41.5h20.1L565,551.7z"/>
		<path fill="#FFFFFF" d="M703,551.3l-10.6-18.8c-8.4-15-14.1-23.4-20.8-30.1c-2.3-2.3-4-3.5-7.9-3.7v52.6h-19.9V429.5H681
			c27.3,0,39.6,15.8,39.6,34.8c0,17.4-11.3,33.4-30.3,33.4c4.4,2.3,12.5,14.1,18.8,24.3l18,29.2H703z M674.8,445.9h-11.1v38.5h10.4
			c10.6,0,16.2-1.4,19.9-5.1c3.3-3.3,5.5-8.4,5.5-14.8C699.4,452.2,692.8,445.9,674.8,445.9z"/>
		<path fill="#FFFFFF" d="M753.7,512.1v1.4c0,12.3,4.6,25.3,22,25.3c8.3,0,15.5-3,22.2-8.8l7.6,11.8c-9.3,7.9-20.1,11.8-32,11.8
			c-25.2,0-41-18.1-41-46.6c0-15.7,3.3-26,11.1-34.8c7.2-8.3,16-12,27.3-12c8.8,0,16.9,2.3,24.5,9.2c7.7,7,11.6,18,11.6,38.7v4
			H753.7z M770.7,474.8c-10.9,0-16.9,8.6-16.9,23.1h32.9C786.7,483.4,780.4,474.8,770.7,474.8z"/>
		<path fill="#FFFFFF" d="M843.1,553.3c-19.5,0-19.5-17.6-19.5-25.2v-75.9c0-12.1-0.5-18.7-1.8-26l19.9-4.4
			c1.4,5.5,1.6,12.8,1.6,24.5v75.5c0,12,0.5,13.9,1.9,16c1.1,1.6,4,2.5,6.3,1.4l3.2,12C851.2,552.5,847.5,553.3,843.1,553.3z"/>
		<path fill="#FFFFFF" d="M876.7,449.1c-7,0-12.5-5.8-12.5-12.8c0-7.2,5.6-13,12.8-13c6.9,0,12.7,5.6,12.7,13
			C889.7,443.2,883.9,449.1,876.7,449.1z M867,551.3v-87.7l19.5-3.5v91.2H867z"/>
		<path fill="#FFFFFF" d="M942,553.6c-24.3,0-37.8-17.1-37.8-45.8c0-32.4,19.4-47.9,39.2-47.9c9.7,0,16.7,2.3,24.6,9.7l-9.7,12.8
			c-5.3-4.8-9.9-6.9-15-6.9c-6.2,0-11.3,3.2-14.1,9c-2.6,5.5-3.7,13.7-3.7,24.8c0,12.1,1.9,19.9,6,24.3c2.8,3.2,7,5.1,11.8,5.1
			c6.2,0,12.1-3,18-8.8l9.2,11.8C962.4,549.9,953.9,553.6,942,553.6z"/>
		<path fill="#FFFFFF" d="M987,553.3c-7.1,0-13-5.8-13-13.1c0-7.3,5.9-13.1,13-13.1c7.1,0,13,5.8,13,13.1
			C1000,547.5,994.1,553.3,987,553.3z M987,529.7c-5.6,0-10,4.6-10,10.5c0,5.8,4.5,10.5,10,10.5c5.6,0,10.1-4.7,10.1-10.5
			C997,534.4,992.5,529.7,987,529.7z M989.6,547.4c-0.6-1-0.8-1.4-1.4-2.4c-1.4-2.6-1.9-3.4-2.4-3.6c-0.1-0.1-0.3-0.1-0.5-0.1v6.1
			h-2.9v-14.7h5.4c2.6,0,4.3,1.7,4.3,4.3c0,2.2-1.5,4-3.3,4c0.3,0.2,0.4,0.4,0.6,0.6c0.8,1.1,3.5,5.7,3.5,5.7H989.6z M988,535.3
			c-0.3-0.1-0.9-0.2-1.7-0.2h-1.1v4h1c1.3,0,1.8-0.1,2.2-0.5c0.4-0.4,0.6-0.9,0.6-1.5C989.1,536.2,988.7,535.6,988,535.3z"/>
	</g>
	<g>
		<path fill="#FFFFFF" d="M102.1,591.9c-50.5,0-91.8-27.9-100.4-67.7C-9,475.3,32.3,424.7,93.6,411.3c10-2.2,20.1-3.3,30-3.3
			c50.5,0,91.8,27.9,100.4,67.7c5.2,23.8-1.6,48.7-19.1,70c-17.4,21.2-43.2,36.4-72.8,42.8C122.2,590.8,112.1,591.9,102.1,591.9z
			 M123.6,413.5c-9.6,0-19.3,1.1-28.9,3.1C36.3,429.3-3,477.1,7,523c8.1,37.4,47.3,63.5,95.1,63.5c9.6,0,19.3-1.1,28.9-3.1
			c28.4-6.2,53.2-20.7,69.8-41c16.4-20.1,22.8-43.3,18-65.4C210.6,439.6,171.5,413.5,123.6,413.5z"/>
		<path fill="#FFFFFF" d="M122.5,567.2c-36.2,0-65.6-29.4-65.6-65.6c0-36.2,29.4-65.6,65.6-65.6c36.2,0,65.6,29.4,65.6,65.6
			C188.1,537.7,158.7,567.2,122.5,567.2z M122.5,441.4c-33.2,0-60.2,27-60.2,60.2c0,33.2,27,60.2,60.2,60.2
			c33.2,0,60.2-27,60.2-60.2C182.7,468.4,155.7,441.4,122.5,441.4z"/>
		<path fill="#FFFFFF" d="M112.9,541c-22.6,0-41-18.4-41-41c0-22.6,18.4-40.9,41-40.9c22.6,0,40.9,18.4,40.9,40.9
			C153.8,522.6,135.4,541,112.9,541z M112.9,464.5c-19.6,0-35.5,15.9-35.5,35.5c0,19.6,15.9,35.6,35.5,35.6
			c19.6,0,35.5-15.9,35.5-35.6C148.4,480.4,132.5,464.5,112.9,464.5z"/>
	</g>
</g>
</svg>
