<?xml version="1.0" encoding="utf-8"?>
<!-- Generator: Adobe Illustrator 18.0.0, SVG Export Plug-In . SVG Version: 6.00 Build 0)  -->
<!DOCTYPE svg PUBLIC "-//W3C//DTD SVG 1.1//EN" "http://www.w3.org/Graphics/SVG/1.1/DTD/svg11.dtd">
<svg version="1.1" id="Layer_1" xmlns="http://www.w3.org/2000/svg" xmlns:xlink="http://www.w3.org/1999/xlink" x="0px" y="0px"
	 viewBox="0 0 1792 1792" enable-background="new 0 0 1792 1792" xml:space="preserve">
<g id="outlines_4_">
	<g>
		<path fill="#FFFFFF" d="M700.4,840.4L650,734.7c-12-25-24.4-53.3-28.6-66.6l-1,1c1.6,18.9,2,42.6,2.3,62.4l1.3,108.9h-36.7v-225
			h42.3l54.6,109.9c10.4,20.8,20.2,47.5,23.1,57.9l1-1c-1-11.4-3.2-43.6-3.2-64l-0.7-102.7h35.4v225H700.4z"/>
		<path fill="#FFFFFF" d="M806.7,767.9v2.6c0,22.8,8.5,46.8,40.6,46.8c15.3,0,28.6-5.5,41-16.3l14,21.8
			c-17.2,14.6-37.1,21.8-59.2,21.8c-46.5,0-75.7-33.5-75.7-86.1c0-28.9,6.2-48.1,20.5-64.4c13.3-15.3,29.6-22.1,50.4-22.1
			c16.3,0,31.2,4.2,45.2,16.9c14.3,13,21.5,33.2,21.5,71.5v7.5H806.7z M838.2,698.9c-20.2,0-31.2,15.9-31.2,42.6h60.8
			C867.8,714.9,856.1,698.9,838.2,698.9z"/>
		<path fill="#FFFFFF" d="M1095,841h-33.5l-20.2-75.7c-5.2-19.5-10.7-44.9-10.7-44.9h-0.7c0,0-2.6,16.3-10.7,46.5L999.5,841H966
			l-44.9-162.9l35.4-4.9l17.9,79.6c4.6,20.5,8.5,43.2,8.5,43.2h1c0,0,3.3-21.5,9.4-44.2l21.1-76.1h35.1l18.5,74.1
			c6.8,26.7,10.4,46.8,10.4,46.8h1c0,0,3.9-25,8.1-44.2l16.9-76.7h37.1L1095,841z"/>
		<path fill="#FFFFFF" d="M672.2,1129.9l-19.5-34.8c-15.6-27.6-26-43.2-38.4-55.6c-4.2-4.2-7.5-6.5-14.6-6.8v97.2h-36.7V905h68.6
			c50.4,0,73.1,29.3,73.1,64.4c0,32.2-20.8,61.8-55.9,61.8c8.1,4.2,23.1,26,34.8,44.9l33.2,54H672.2z M620.1,935.2h-20.5v71.2h19.2
			c19.5,0,29.9-2.6,36.7-9.4c6.2-6.2,10.1-15.6,10.1-27.3C665.6,946.9,653.3,935.2,620.1,935.2z"/>
		<path fill="#FFFFFF" d="M765.8,1057.4v2.6c0,22.8,8.5,46.8,40.6,46.8c15.3,0,28.6-5.5,41-16.3l14,21.8
			c-17.2,14.6-37.1,21.8-59.2,21.8c-46.5,0-75.7-33.5-75.7-86.1c0-28.9,6.2-48.1,20.5-64.4c13.3-15.3,29.6-22.1,50.4-22.1
			c16.3,0,31.2,4.2,45.2,16.9c14.3,13,21.5,33.2,21.5,71.5v7.5H765.8z M797.3,988.5c-20.2,0-31.2,15.9-31.2,42.6h60.8
			C826.9,1004.4,815.2,988.5,797.3,988.5z"/>
		<path fill="#FFFFFF" d="M930.9,1133.5c-36.1,0-36.1-32.5-36.1-46.5V946.9c0-22.4-1-34.5-3.3-48.1l36.7-8.1
			c2.6,10.1,2.9,23.7,2.9,45.2v139.5c0,22.1,1,25.7,3.6,29.6c2,2.9,7.5,4.5,11.7,2.6l5.9,22.1C945.9,1132.2,939,1133.5,930.9,1133.5
			z"/>
		<path fill="#FFFFFF" d="M993,941c-13,0-23.1-10.7-23.1-23.7c0-13.3,10.4-24.1,23.7-24.1c12.7,0,23.4,10.4,23.4,24.1
			C1017.1,930.3,1006.3,941,993,941z M975.1,1129.9V968l36.1-6.5v168.4H975.1z"/>
		<path fill="#FFFFFF" d="M1113.6,1134.2c-44.9,0-69.9-31.5-69.9-84.5c0-59.8,35.8-88.4,72.5-88.4c17.9,0,30.9,4.2,45.5,17.9
			l-17.9,23.7c-9.8-8.8-18.2-12.7-27.6-12.7c-11.4,0-20.8,5.9-26,16.6c-4.9,10.1-6.8,25.4-6.8,45.8c0,22.4,3.6,36.7,11.1,44.9
			c5.2,5.9,13,9.4,21.8,9.4c11.4,0,22.4-5.5,33.2-16.3l16.9,21.8C1151.3,1127.3,1135.7,1134.2,1113.6,1134.2z"/>
		<path fill="#FFFFFF" d="M1196.8,1133.5c-13.2,0-24-10.6-24-24.1c0-13.4,10.8-24.1,24-24.1c13.2,0,24,10.7,24,24.1
			C1220.8,1122.9,1209.9,1133.5,1196.8,1133.5z M1196.8,1090c-10.3,0-18.5,8.6-18.5,19.3s8.2,19.5,18.5,19.5
			c10.3,0,18.6-8.7,18.6-19.5S1207,1090,1196.8,1090z M1201.5,1122.8c-1-1.8-1.5-2.5-2.5-4.5c-2.7-4.9-3.5-6.2-4.5-6.6
			c-0.3-0.1-0.5-0.2-0.8-0.2v11.3h-5.3v-27.1h10.1c4.8,0,8,3.2,8,7.9c0,4.1-2.7,7.4-6,7.5c0.5,0.5,0.8,0.7,1.1,1.2
			c1.6,1.9,6.5,10.5,6.5,10.5H1201.5z M1198.6,1100.4c-0.6-0.2-1.8-0.4-3.1-0.4h-1.9v7.3h1.8c2.3,0,3.4-0.3,4.1-0.9
			c0.7-0.6,1-1.6,1-2.7C1200.6,1102,1199.9,1100.9,1198.6,1100.4z"/>
	</g>
	<g>
		<path fill="none" stroke="#FFFFFF" stroke-width="17.4736" d="M1733.5,713.9c79.7,366.5-230.7,745.2-693.2,845.8
			c-462.5,100.6-902.1-115.1-981.8-481.6c-79.7-366.5,230.7-745.2,693.2-845.8C1214.2,131.7,1653.8,347.4,1733.5,713.9z"/>
		<path fill="none" stroke="#FFFFFF" stroke-width="17.4736" d="M1579.6,905.2c0,330.3-267.8,598.1-598.1,598.1
			c-330.3,0-598.1-267.8-598.1-598.1c0-330.3,267.8-598.1,598.1-598.1C1311.8,307.1,1579.6,574.9,1579.6,905.2z"/>
		<path fill="none" stroke="#FFFFFF" stroke-width="17.0467" d="M1313.5,886.2c0,247.8-200.8,448.6-448.5,448.6
			c-247.8,0-448.6-200.8-448.6-448.6c0-247.7,200.8-448.5,448.6-448.5C1112.7,437.7,1313.5,638.5,1313.5,886.2z"/>
	</g>
</g>
</svg>
