<?xml version="1.0" encoding="utf-8"?>
<!-- Generator: Adobe Illustrator 18.0.0, SVG Export Plug-In . SVG Version: 6.00 Build 0)  -->
<!DOCTYPE svg PUBLIC "-//W3C//DTD SVG 1.1//EN" "http://www.w3.org/Graphics/SVG/1.1/DTD/svg11.dtd">
<svg version="1.1" id="Layer_1" xmlns="http://www.w3.org/2000/svg" xmlns:xlink="http://www.w3.org/1999/xlink" x="0px" y="0px"
	 viewBox="0 0 1000 1000" enable-background="new 0 0 1000 1000" xml:space="preserve">
<path fill="#FFFFFF" d="M436.3,984.1c-13.2,0-26.3-3.4-37.8-10.1L278,902.7c-18-10.1-9.2-13.6-3.3-15.7c24-8.3,28.8-10.2,54.4-24.8
	c2.7-1.5,6.2-0.9,9,0.7l92.5,54.9c3.4,1.9,8.1,1.9,11.2,0l360.6-208.2c3.3-1.9,5.5-5.8,5.5-9.8V283.8c0-4.1-2.2-7.9-5.6-9.9
	l-360.5-208c-3.3-1.9-7.8-1.9-11.1,0l-360.4,208c-3.5,2-5.7,5.9-5.7,9.9V700c0,4,2.2,7.8,5.7,9.6l98.8,57.1
	c53.6,26.8,86.4-4.8,86.4-36.5V319.3c0-5.8,4.7-10.4,10.5-10.4h45.7c5.7,0,10.5,4.6,10.5,10.4v410.9c0,71.5-39,112.6-106.8,112.6
	c-20.8,0-37.3,0-83.1-22.6l-94.6-54.4C14.5,752.3,0,727,0,700V283.8c0-27,14.5-52.3,37.8-65.7L398.5,9.7c22.8-12.9,53.2-12.9,75.8,0
	l360.6,208.4c23.4,13.5,37.9,38.7,37.9,65.7V700c0,27-14.5,52.2-37.9,65.8L474.3,974C462.7,980.7,449.6,984.1,436.3,984.1z
	 M727.5,573.8c0-77.9-52.6-98.6-163.5-113.3c-112-14.8-123.4-22.5-123.4-48.7c0-21.6,9.6-50.5,92.6-50.5c74.1,0,101.4,16,112.6,65.9
	c1,4.7,5.3,8.1,10.1,8.1h46.8c2.9,0,5.7-1.3,7.6-3.3c2-2.2,3-5.1,2.8-8c-7.2-86-64.4-126.1-179.9-126.1
	C430.4,297.8,369,341.2,369,414c0,78.9,61,100.7,159.7,110.5c118.1,11.6,127.2,28.8,127.2,52c0,40.3-32.3,57.5-108.3,57.5
	c-95.4,0-116.4-24-123.5-71.4c-0.8-5.1-5.1-8.8-10.4-8.8h-46.6c-5.8,0-10.4,4.6-10.4,10.4c0,60.8,33.1,133.2,190.9,133.2
	C661.9,697.4,727.5,652.4,727.5,573.8z M886,151.7v7.2h20.3V212h8.2v-53.1h20.4v-7.2H886z M942.1,212h7.8v-35.6
	c0-1.4-0.1-3.7-0.1-6.7c-0.1-3.1-0.1-5.3-0.1-6.8v-1.8l17.4,50.9h8.1l17.2-50.9c0,3.2,0,6.3-0.1,9.2c0,2.8-0.1,4.8-0.1,6.1V212h7.8
	v-60.3h-11.6l-17.2,51l-17.3-51h-11.7V212z"/>
</svg>
