<?xml version="1.0" encoding="utf-8"?>
<!-- Generator: Adobe Illustrator 18.0.0, SVG Export Plug-In . SVG Version: 6.00 Build 0)  -->
<!DOCTYPE svg PUBLIC "-//W3C//DTD SVG 1.1//EN" "http://www.w3.org/Graphics/SVG/1.1/DTD/svg11.dtd">
<svg version="1.1" id="Layer_1" xmlns="http://www.w3.org/2000/svg" xmlns:xlink="http://www.w3.org/1999/xlink" x="0px" y="0px"
	 viewBox="0 0 1792 1792" enable-background="new 0 0 1792 1792" xml:space="preserve">
<g>
	<path fill="#FFFFFF" d="M358.5,754.7c55.9,0,93.4,10.3,111.8,30.8c18.5,20.5,23.1,55.9,13.3,106.2c-10.3,52.3-29.7,89.8-59,111.8
		c-29.2,22.1-73.3,33.3-132.8,33.3h-89.8L257,753.7h101.6V754.7z M0,1324h147.2l34.9-179.5h126.2c55.9,0,101.6-5.6,137.5-17.4
		c35.9-11.8,68.7-31.3,98-59c24.6-22.6,44.6-47.7,60-74.9c15.4-27.2,26.2-57.4,32.3-90.3c15.4-80,3.6-142.6-35.4-187.2
		s-101-67.2-186.2-67.2H131.3L0,1324z"/>
	<path fill="#FFFFFF" d="M744.2,468h146.2l-34.9,179.5h130.3c82.1,0,138.5,14.4,169.3,43.1c31.3,28.7,40.5,74.9,28.2,139l-61,314.4
		H974l58-299c6.7-33.9,4.1-57.4-7.2-69.8c-11.3-12.3-35.9-18.5-73.3-18.5H834.5L759.1,1144H612.9L744.2,468z"/>
	<path fill="#FFFFFF" d="M1508,754.7c55.9,0,93.4,10.3,111.8,30.8c18.5,20.5,23.1,55.9,13.3,106.2c-10.3,52.3-29.7,89.8-59,111.8
		c-29.2,22.6-73.3,33.3-132.8,33.3h-89.8l54.9-283.1H1508V754.7z M1149.4,1324h147.2l34.9-179.5h126.2c55.9,0,101.6-5.6,137.5-17.4
		c35.9-11.8,68.7-31.3,98-59c24.6-22.6,44.6-47.7,60-74.9c15.4-27.2,26.2-57.4,32.3-90.3c15.4-80,3.6-142.6-35.4-187.2
		c-39-44.6-101-67.2-186.2-67.2h-283.1L1149.4,1324z"/>
</g>
</svg>
