<?xml version="1.0" encoding="utf-8"?>
<!-- Generator: Adobe Illustrator 18.0.0, SVG Export Plug-In . SVG Version: 6.00 Build 0)  -->
<!DOCTYPE svg PUBLIC "-//W3C//DTD SVG 1.1//EN" "http://www.w3.org/Graphics/SVG/1.1/DTD/svg11.dtd">
<svg version="1.1" id="Layer_1" xmlns="http://www.w3.org/2000/svg" xmlns:xlink="http://www.w3.org/1999/xlink" x="0px" y="0px"
	 viewBox="0 0 350 400" enable-background="new 0 0 350 400" xml:space="preserve">
<path fill="#FFFFFF" d="M107.6,244.8c-6.4,4-15.9,10.4-23.3,17.4c-12.2,11.5-14.7,27.4-8.3,31.1c5.9,3.4,19.8-0.7,29.7-11.5
	c10.4-11.4,14.7-25.8,10.3-42.1c-0.5,0.3-1,0.6-1.5,0.9l0,0l-0.7,0.4C111.1,242.6,109,243.9,107.6,244.8z M286.2,239.6
	c-3.6,7.8-3.8,10.3-2.7,11.1c5.2-1.9,13.9-6.4,13.9-18.5c0-1.8-0.4-3.8-1-5.8C290.8,231.4,287.6,236.5,286.2,239.6L286.2,239.6z
	 M342.3,215.9c-14-1.6-24.9,0.3-33.3,3.9c1.6,4.1,2.8,8.3,2.9,12.6c0.4,9.4-6.1,16.3-12.8,21.3c-3.9,2.9-8.1,4.8-11.6,6
	c-2.8,1.2-6.5,2.4-9.2,1.9c-5.8-1.2-8.9-6.4-5-17.8c2.1-6.2,8.3-15.6,18.3-23.7c-2.3-4.7-4.8-9.5-6.1-13.8
	c-2.5-8.6-3.3-13.9-3.3-13.9s-8.2,17.1-18.9,32.6c-0.6,0.9-1.2,1.8-1.8,2.7c2.1,4.8,3.7,10,4,15.1c0.4,9.4-3.7,16.5-10.4,21.4
	c-3.6,2.7-7.5,4.5-10.9,5.7c-2.1,0.9-6.5,2.5-12.7,2.9c-3.4,0.2-6.6,0-8.4-1.4c-2.5-1.9-2.8-4.2-1.5-7.4c1.1-2.7,9.3-12,16.1-20.2
	c1.9-2.3,3.7-4.6,5.3-6.7l0-0.1c0,0,1.2-1.6,3.3-4.4c-2.5-5.4-5.7-11-7.2-16.1c-2.5-8.6-3.3-13.9-3.3-13.9s-8.3,21.4-17,38.5
	c-6.7,13.2-11.2,21.2-13.2,24.8l0,0.1c0,0-0.3,0.5-0.8,1.3l-0.4,0.7l0-0.1c-2.3,3.3-7.3,9.9-12.4,9.9c-13.8,0-8.7-28.1-8.7-28.1
	s-4,10.4-8.6,19.3c-3.7,7.3-7.1,13.4-14.5,13.4c-2.1,0-5.5-0.1-8.3-2.7c-6.3-6-11.2-21.3-10.2-33.2c0.8-10.1,2.4-17.1,4.5-22.9
	c-3.8,2.1-8.2,4.5-12.6,7.1l-6.9,4l0.2,0.4c5.7,11,7.2,35-5.2,53.5c-12.4,18.5-35.4,29.7-57.9,23.5c-7.2-2-18.2-17-8.7-37.9
	c8.3-18.4,41.6-35.8,50.4-40.2l2.4-1.3c-17.5-15.3-61.1-35.9-67.2-67.6c-1.7-8.9,2.5-30.3,28.7-54.8c22-20.6,52.7-36.4,81-46.5
	c47.6-16.9,97.8-6.9,105.6,23.4c7.6,29.8-18.3,65.5-51.4,78.3c-29.6,11.4-54,9.6-64.1,6.3c-11.4-3.8-18.1-11.3-19.8-15.5
	c-0.6-1.7-1.7-4.5,0-5.4c1.1-0.6,1.5-0.5,4.4,2.7c2.7,3,13.7,11.1,34.5,8.8c54.7-6.1,87.6-48.6,77.2-71.5c-7.3-16-49.4-23.2-102.1,3
	c-64.3,32.1-67.8,58.5-68.3,68.5c-1.5,27.6,34,42.1,53.3,62.7l0.7,0.8c3.6-2,7.4-4.1,11.1-6.1c9.7-5.3,18.8-10.3,23.1-12.7
	c6.8-9.8,20.5-20.7,30.4-20.7c15.9,0,10.4,22.8,10.4,22.8s0.3-1,0.8-1.1c0.5,0,2.2-3,7.1-1.2c5,1.8,3.9,5.4,3.9,5.7
	c0.1,0.7-5.9,21-8.4,34c-1.2,6.2-0.5,10.7-0.1,10.7c0.5,0,1.5-1.6,2.4-3.3l0-0.1c0,0,0.7-1.3,1.9-3.6l0.2-0.5l0,0
	c1.4-2.7,3.3-6.7,5.6-11.6c4.4-9.7,21.2-47.2,22.6-51.3s2.2-8.4,2.9-10.3c0.7-1.8,6.6-3.2,13.6-3.2c6.9,0.1,7.6,3,7.7,3.6
	c0.1,0.6-3.3,8.8-4.1,14.6c-0.8,5.8,0,8.7,0.6,13.6c0.4,3.2,2.4,7.2,4.8,11.8c7.2-11.7,19.8-34.2,21-40.5c0.8-4.3,2.2-8.4,2.9-10.3
	s6.6-3.2,13.6-3.2s7.6,3,7.7,3.6c0,0.6-3.3,8.8-4.1,14.6c-0.8,5.8,0,8.7,0.6,13.6c0.5,4.2,3.8,9.8,7,16.2c8.7-4.3,19-7.2,31-7.3
	c5,0,10.8,0.5,13.8,1.4v-96c0-6.8-3.5-13-9.3-16.4L184,2.5c-5.9-3.4-13-3.4-18.9,0L9,93c-5.9,3.4-9,9.6-9,16.4v181.1
	c0,6.8,3.1,13,9,16.4l156.4,90.5c5.9,3.4,13,3.4,18.8,0l156.5-90.5c5.9-3.4,9.3-9.6,9.3-16.4v-73.2
	C348,216.7,345.1,216.3,342.3,215.9L342.3,215.9z M173.8,206.5c-3.4,3.8-9.1,13.5-11.8,21.6c-5.3,16.1-3,32.5,0.8,33.5
	c4.4,1.2,11.6-20.4,15.1-28.8c2.2-5.3,10.6-28.7,8.7-31.8C185.2,198.4,179.2,200.4,173.8,206.5L173.8,206.5z M234.7,260.8
	c0,0-1.1,1-0.6,1.3c0.6,0.4,2-0.1,3.4-0.9c4.1-2.6,13.4-9.1,13.5-18.7c0-0.3,0-0.6,0-0.8c-2.2,2.8-4.1,5.3-5.9,7.5
	C242.2,252.8,234.7,260.8,234.7,260.8L234.7,260.8z"/>
</svg>
