<?xml version="1.0" encoding="utf-8"?>
<!-- Generator: Adobe Illustrator 18.0.0, SVG Export Plug-In . SVG Version: 6.00 Build 0)  -->
<!DOCTYPE svg PUBLIC "-//W3C//DTD SVG 1.1//EN" "http://www.w3.org/Graphics/SVG/1.1/DTD/svg11.dtd">
<svg version="1.1" id="Layer_1" xmlns="http://www.w3.org/2000/svg" xmlns:xlink="http://www.w3.org/1999/xlink" x="0px" y="0px"
	 viewBox="0 0 285 285" enable-background="new 0 0 285 285" xml:space="preserve">
<path fill="#FFFFFF" d="M141.7,0C63.5,0,0,63.5,0,141.7C0,220,63.5,283.5,141.7,283.5S283.5,220,283.5,141.7
	C283.5,63.5,220,0,141.7,0z M173.5,48.8c5.2-9.1,16.8-12.2,25.8-6.9c9.1,5.2,12.1,16.8,6.9,25.8c-5.2,9-16.8,12.1-25.8,6.9
	C171.4,69.4,168.3,57.9,173.5,48.8z M45.4,160.7c-10.5,0-18.9-8.5-18.9-18.9c0-10.5,8.5-18.9,18.9-18.9c10.5,0,18.9,8.5,18.9,18.9
	C64.3,152.2,55.8,160.7,45.4,160.7z M62.1,162.3c6-4.9,9.8-12.3,9.8-20.6c0-8.3-3.8-15.7-9.8-20.6c5.1-19.8,17.4-36.7,34-47.8
	L110,96.5c-14.2,10-23.5,26.5-23.5,45.2c0,18.7,9.3,35.2,23.5,45.2l-13.8,23.2C79.6,199.1,67.2,182.2,62.1,162.3z M199.4,241.6
	c-9.1,5.2-20.6,2.1-25.8-6.9c-5.2-9-2.1-20.6,6.9-25.8c9-5.2,20.6-2.1,25.8,6.9C211.5,224.8,208.4,236.4,199.4,241.6z M199.3,200.3
	c-7.2-2.7-15.5-2.3-22.7,1.8c-7.2,4.2-11.7,11.2-12.9,18.8c-7,1.9-14.4,3-22,3c-13.1,0-25.5-3.1-36.4-8.5l13.1-23.6
	c7.1,3.3,15,5.1,23.3,5.1c28.9,0,52.6-22.1,55-50.4l27,0.4C222.4,167.9,213.3,186.6,199.3,200.3z M196.8,136.8
	c-2.5-28.2-26.2-50.4-55-50.4c-8.3,0-16.2,1.8-23.3,5.1L105.3,68c11-5.4,23.3-8.5,36.4-8.5c7.6,0,15,1.1,22,3
	c1.2,7.6,5.7,14.6,12.9,18.8c7.2,4.1,15.5,4.6,22.7,1.8c14,13.8,23.1,32.5,24.4,53.3L196.8,136.8z"/>
</svg>
