<?xml version="1.0" encoding="utf-8"?>
<!-- Generator: Adobe Illustrator 18.0.0, SVG Export Plug-In . SVG Version: 6.00 Build 0)  -->
<!DOCTYPE svg PUBLIC "-//W3C//DTD SVG 1.1//EN" "http://www.w3.org/Graphics/SVG/1.1/DTD/svg11.dtd">
<svg version="1.1" id="Layer_1" xmlns="http://www.w3.org/2000/svg" xmlns:xlink="http://www.w3.org/1999/xlink" x="0px" y="0px"
	 viewBox="0 0 1792 1792" enable-background="new 0 0 1792 1792" xml:space="preserve">
<path fill="#FFFFFF" d="M1658.8,898.7c0-79.1-12.1-155.4-34.3-227.1L1284,1555.1C1508,1422.3,1658.8,1178,1658.8,898.7L1658.8,898.7
	z"/>
<path fill="#FFFFFF" d="M655.2,1621.4c76,25.3,157,39,241.5,39c88.4,0,173-14.8,251.7-42.5l-232.6-603L655.2,1621.4L655.2,1621.4z"
	/>
<path fill="#FFFFFF" d="M165.6,683.3c-20.3,68.2-31.2,140.6-31.2,215.4c0,285.6,157.4,534.5,389.6,664.6L167.9,688L165.6,683.3
	L165.6,683.3z"/>
<path fill="#FFFFFF" d="M554,633.8l-32.7-1.6c-71.3-1.2-63.5,72.8-63.5,72.8l253.6,635.4l170.2-406.7l-95.1-242.3
	C748.4,627.6,655.6,628,655.6,628v-33.9h532.5l-0.8,37.4l-55.3,3.5c-69,0-54.9,65.8-54.9,65.8l231.4,617.5l66.2-171
	c117.6-266.5,45.2-463.6,45.2-463.6c-117.6-242.3,31.2-277,31.2-277c9.3-1.2,18.3-1.9,26.9-2.3c-140.6-163.6-349.1-268-581.2-268
	c-314.4,0-584.3,190.5-700.8,462.4l356.8-3.5L554,633.8L554,633.8z"/>
<path fill="#FFFFFF" d="M1752.7,896c0,472.2-384.5,856.7-856.7,856.7c-472.5,0-856.7-384.5-856.7-856.7
	C39.3,423.5,423.8,39.3,896,39.3C1368.5,39.3,1752.7,423.8,1752.7,896z M896,0C402,0,0,402,0,896s402,896,896,896s896-401.6,896-896
	C1792,402,1390.4,0,896,0z"/>
</svg>
