<?xml version="1.0" encoding="utf-8"?>
<!-- Generator: Adobe Illustrator 18.0.0, SVG Export Plug-In . SVG Version: 6.00 Build 0)  -->
<!DOCTYPE svg PUBLIC "-//W3C//DTD SVG 1.1//EN" "http://www.w3.org/Graphics/SVG/1.1/DTD/svg11.dtd">
<svg version="1.1" id="Layer_1" xmlns="http://www.w3.org/2000/svg" xmlns:xlink="http://www.w3.org/1999/xlink" x="0px" y="0px"
	 viewBox="0 0 1500 996.4" enable-background="new 0 0 1500 996.4" xml:space="preserve">
<g>
	<g>
		<path fill="#FFFFFF" d="M175.9,270.4c-1.9,3.8-5.3,6.2-10.1,7.2c-4.8,1-9.5,0.7-14.1-0.9c-4.6-1.5-8.3-4.1-11.2-7.8
			c-2.9-3.6-3.4-8.1-1.4-13.5c1.9-5,7.3-12.5,16.1-22.4c8.8-10,18.8-20.4,29.9-31.4c11.1-10.9,22.4-21.3,34-31.1
			c11.5-9.8,21.1-17,28.8-21.6c-15.7,8.1-27.2,12.9-34.5,14.4c-7.3,1.5-13.4,1.9-18.4,1.2c-2.7-0.4-6-3.2-10.1-8.3
			c-4-5.2-7.9-11.3-11.5-18.4c-3.6-7.1-6.6-14.4-8.9-21.9c-2.3-7.5-3.1-13.7-2.3-18.7c0.4-3.5,4.2-8.1,11.5-14.1
			c7.3-5.9,16.8-12.4,28.5-19.3c11.7-6.9,25.4-13.8,41.1-20.7c15.7-6.9,32.4-13.1,50.1-18.7c17.6-5.6,35.9-10,54.7-13.2
			c18.8-3.3,37.2-4.5,55.2-3.7c24.2,1.2,43.5,5.5,58.1,12.9c14.6,7.5,25.5,16.1,32.8,25.9c7.3,9.8,11.5,19.6,12.7,29.3
			s0.6,17.6-1.7,23.3c-2.7,6.9-7.3,13.7-13.8,20.4c-6.5,6.7-13.9,13.1-22.2,19.3c-8.3,6.1-17,11.9-26.2,17.3
			c-9.2,5.4-17.8,10.2-25.9,14.4c-8.1,4.2-15.1,7.7-21,10.4c-6,2.7-10.1,4.4-12.4,5.2c11.5-0.8,21.6,1,30.2,5.2
			c8.6,4.2,15.9,9.5,21.9,15.8c5.9,6.3,10.4,12.9,13.5,19.9c3.1,6.9,4.6,12.9,4.6,17.8c0,13.8-5,27.7-15,41.7
			c-10,14-23.4,27.6-40.3,40.9c-16.9,13.2-36,25.6-57.3,37.1c-21.3,11.5-43.1,21.5-65.3,29.9c-22.3,8.4-44.1,15.2-65.6,20.1
			c-21.5,5-40.5,7.5-57,7.5c-22.6,0-42.7-4.3-60.1-12.9c-17.5-8.6-32.2-19.9-44.3-33.7c-12.1-13.8-21.3-29.4-27.6-46.9
			c-6.3-17.5-9.5-35.2-9.5-53.2c0-5.8,1.9-8.9,5.8-9.5c3.8-0.6,8,0.6,12.4,3.5c4.4,2.9,8.1,6.7,11.2,11.5c3.1,4.8,4,9.7,2.9,14.7
			c-1.2,5-1.2,11.2,0,18.7c1.2,7.5,3.6,15.2,7.5,23c3.8,7.9,8.9,15.2,15.2,21.9c6.3,6.7,13.9,11.8,22.7,15.2
			c15,5.8,31.5,8.9,49.5,9.5c18,0.6,36.6-1.1,55.8-4.9c19.2-3.8,38.4-9.2,57.5-16.1c19.2-6.9,37.5-14.9,55-23.9
			c17.5-9,33.5-18.7,48.1-29.1c14.6-10.4,26.9-20.6,37.1-30.8c10.2-10.2,17.5-19.9,21.9-29.3c4.4-9.4,5.1-17.7,2-25
			c-2.7-6.1-7.2-10.4-13.5-12.9c-6.3-2.5-13.5-3.7-21.6-3.7c-8.1,0-16.5,1-25.3,2.9c-8.8,1.9-17.3,4.2-25.3,6.9
			c-8.1,2.7-15.2,5.5-21.6,8.3c-6.3,2.9-10.8,5.1-13.5,6.6c-4.2,2.7-7.8,2.2-10.6-1.4c-2.9-3.6-4.9-8.5-6-14.7
			c-1.2-6.1-1.1-12.4,0.3-18.7c1.3-6.3,4.5-10.8,9.5-13.5c3.1-1.9,10.1-5.4,21-10.4c10.9-5,23.5-10.8,37.7-17.6
			c14.2-6.7,29.2-14.1,45.2-22.2c15.9-8.1,30.4-16,43.4-23.9c13-7.9,23.8-15.3,32.2-22.4c8.4-7.1,12.7-13.3,12.7-18.7
			c-0.4-9.2-5-15.9-13.8-20.1c-8.8-4.2-20.3-6.5-34.5-6.9c-14.2-0.4-30.2,0.9-48.1,3.7c-17.8,2.9-36,6.7-54.4,11.5
			c-18.4,4.8-36.3,10.4-53.5,16.7c-17.3,6.3-32.4,12.8-45.5,19.3c-13,6.5-23,13-29.9,19.6c-6.9,6.5-9.4,12.3-7.5,17.3
			c1.2,2.7,4.5,3.7,10.1,3.2c5.6-0.6,12.3-2.1,20.1-4.6c7.9-2.5,16.5-5.7,25.9-9.5c9.4-3.8,18.4-7.6,27-11.2
			c8.6-3.6,16.5-6.8,23.6-9.5c7.1-2.7,12.4-4.4,15.8-5.2c5-0.8,10.2-0.4,15.5,1.2c5.4,1.5,9.3,3.8,11.8,6.9
			c2.5,3.1,2.8,6.9,0.9,11.5c-1.9,4.6-7.3,9.4-16.1,14.4c-8.8,5.4-20.8,13.9-36,25.6c-15.2,11.7-30.5,24.6-46,38.6
			c-15.5,14-29.9,28.1-43.2,42.3C190,247.8,180.9,260,175.9,270.4z"/>
		<path fill="#FFFFFF" d="M502.8,318.1c3.5,3.8,9.5,4.9,18.1,3.2c8.6-1.7,18.5-5.1,29.6-10.1c11.1-5,23.1-11.3,36-19
			c12.8-7.7,25.3-15.7,37.4-24.2c12.1-8.4,23.3-16.8,33.7-25c10.4-8.2,18.8-15.6,25.3-22.2c5.4-5.4,10.4-9.3,15.2-11.8
			c4.8-2.5,8.6-3.6,11.5-3.5c2.9,0.2,4.3,1.6,4.3,4.3c0,2.7-2.3,6.3-6.9,10.9c-15,15-31,30.3-48.1,46c-17.1,15.7-34,30.1-50.6,43.2
			c-16.7,13-32.6,23.7-47.8,31.9c-15.2,8.3-28.3,12.4-39.4,12.4c-5.4,0-11.3-1.2-17.8-3.7c-6.5-2.5-12.5-6.3-17.8-11.5
			c-5.4-5.2-9.9-11.9-13.5-20.1c-3.6-8.2-5.5-18.1-5.5-29.6c0-7.7,3.2-17.3,9.5-28.8c6.3-11.5,14.5-23.6,24.5-36.3
			c10-12.7,21.1-25.3,33.4-38c12.3-12.7,24.5-24.1,36.5-34.2c12.1-10.2,23.5-18.4,34.2-24.7c10.7-6.3,19.4-9.5,25.9-9.5
			c2.3,0,5.7,0.8,10.1,2.3c4.4,1.5,8.7,4,12.9,7.5c4.2,3.5,7.8,8.1,10.6,13.8c2.9,5.8,3.7,13,2.6,21.9c-1.2,8.8-5,18.2-11.5,28.2
			c-6.5,10-14.3,19.6-23.3,28.8c-9,9.2-18.2,17.6-27.6,25c-9.4,7.5-17.4,12.9-23.9,16.4c-11.1,6.5-21.8,8.5-31.9,6
			c-10.2-2.5-18.3-7-24.5-13.5c-10,14.2-17.3,27.1-21.9,38.8C497.6,304.8,497.8,313.2,502.8,318.1z M628.8,160.5
			c-3.1-1.9-8.2-1-15.2,2.9c-7.1,3.8-15.1,9.6-23.9,17.3c-8.8,7.7-18.1,16.7-27.9,27c-9.8,10.4-18.9,21.1-27.3,32.2
			c5.8,2.7,12.4,2.8,19.9,0.3c7.5-2.5,15.1-6.4,22.7-11.8c7.7-5.4,15.1-11.6,22.2-18.7c7.1-7.1,13.2-14.1,18.4-21
			c5.2-6.9,8.8-12.9,10.9-18.1C630.6,165.4,630.7,162,628.8,160.5z"/>
		<path fill="#FFFFFF" d="M858.9,200.8c-10.4,16.1-19.8,30.6-28.2,43.4c-8.4,12.9-15.4,23.8-20.7,32.8c-5.4,9-9,16.2-10.9,21.6
			c-1.9,5.4-1.7,8.6,0.6,9.8c2.7,1.5,8.1-1.1,16.4-7.8c8.2-6.7,17.6-15,27.9-24.7c10.4-9.8,20.5-19.9,30.5-30.2
			c10-10.4,18-18.6,24.2-24.7c5-5,10.2-9,15.5-12.1c5.4-3.1,9.7-4.7,12.9-4.9c3.3-0.2,4.8,1.1,4.6,3.7c-0.2,2.7-3.2,7.1-8.9,13.2
			c-8.4,8.4-18.6,19.8-30.5,34c-11.9,14.2-23.7,28.3-35.4,42.3c-11.7,14-22.3,26.3-31.9,36.8c-9.6,10.6-16.5,16.4-20.7,17.6
			c-5.8,1.9-11,1.9-15.8,0c-4.8-1.9-8.9-4.9-12.4-8.9c-3.5-4-6-8.8-7.5-14.4c-1.5-5.6-1.9-11.2-1.1-17c0.4-4.6,1.9-10.1,4.6-16.4
			c2.7-6.3,5.8-12.7,9.2-19c3.4-6.3,6.7-12.3,9.8-17.8c3.1-5.6,5.6-9.9,7.5-12.9c-1.5,2.7-4.8,7.2-9.8,13.5
			c-5,6.3-11,13.5-18.1,21.6c-7.1,8.1-14.9,16.5-23.3,25.3c-8.4,8.8-16.9,16.8-25.3,23.9c-8.4,7.1-16.5,13-24.2,17.8
			c-7.7,4.8-14.2,7.2-19.6,7.2c-6.1,0-12-2.4-17.6-7.2c-5.6-4.8-10.2-10.7-13.8-17.8c-3.6-7.1-6.2-14.7-7.8-22.7
			c-1.5-8.1-1.3-15.2,0.6-21.3c1.9-6.9,7-16.3,15.2-28.2c8.3-11.9,18.1-24.6,29.6-38.3c11.5-13.6,24.1-27.3,37.7-41.1
			c13.6-13.8,26.9-26.2,40-37.1c13-10.9,25.2-19.5,36.5-25.6c11.3-6.1,20.4-8.4,27.3-6.9c2.7,0.8,5.8,3.1,9.2,6.9
			c3.5,3.8,6.4,8.6,8.9,14.4c2.5,5.8,4.1,12.3,4.9,19.6c0.8,7.3-0.2,14.4-2.9,21.3c5.4,3.1,9.6,7.8,12.7,14.1
			C862,190.7,862,196.1,858.9,200.8z M827.3,150.1c-4.6-2.3-11.9-0.5-21.9,5.5c-10,6-21.1,14.4-33.4,25.3
			c-12.3,10.9-24.9,23.2-38,36.8c-13,13.6-24.5,26.8-34.2,39.4c-9.8,12.7-17.4,24-22.7,34c-5.4,10-6.5,16.7-3.5,20.1
			c2.7,3.5,8.9,2.4,18.7-3.2c9.8-5.6,21.4-14.3,34.8-26.2c13.4-11.9,27.9-26,43.4-42.3c15.5-16.3,30.6-33.5,45.2-51.5
			c5-9.6,8.7-17.9,11.2-25C829.5,156,829.6,151.7,827.3,150.1z"/>
		<path fill="#FFFFFF" d="M1085.1,120.2c3.1-1.2,6.6-0.7,10.6,1.4c4,2.1,7.7,4.9,10.9,8.3c3.3,3.5,5.5,7.1,6.6,10.9
			c1.2,3.8,0.6,6.9-1.7,9.2c-1.5,1.9-5,7.1-10.4,15.5c-5.4,8.4-11.6,18.5-18.7,30.2c-7.1,11.7-14.5,24.3-22.2,37.7
			c-7.7,13.4-14.5,25.9-20.4,37.4c-6,11.5-10.6,21.3-14.1,29.3c-3.5,8.1-4.4,12.7-2.9,13.8c1.5,1.2,5.2,0,10.9-3.5
			c5.8-3.5,12.6-8.3,20.4-14.7c7.9-6.3,16.4-13.3,25.6-21c9.2-7.7,17.9-15.2,26.2-22.4c8.2-7.3,15.5-13.8,21.9-19.6
			c6.3-5.8,10.6-9.8,12.9-12.1c3.5-3.5,7.3-6,11.5-7.8c4.2-1.7,7.9-2.7,10.9-2.9c3.1-0.2,5,0.6,5.8,2.3c0.8,1.7-0.6,4.5-4,8.3
			c-6.1,6.1-13.4,13.7-21.9,22.7c-8.4,9-17.3,18.5-26.5,28.5c-9.2,10-18.6,19.9-28.2,29.6c-9.6,9.8-18.6,18.6-27,26.5
			c-8.4,7.9-16.1,14.2-23,19c-6.9,4.8-12.3,7.2-16.1,7.2c-3.1,0-6.4-1.3-10.1-4c-3.7-2.7-7.1-6.2-10.4-10.6
			c-3.3-4.4-5.9-9.6-7.8-15.5c-1.9-5.9-2.9-12.2-2.9-18.7c0-5.8,1.9-13.4,5.8-23c3.8-9.6,8.1-19.3,12.9-29.1
			c4.8-9.8,9.5-18.8,14.1-27c4.6-8.2,7.9-14.3,9.8-18.1c-5,6.1-11,13.7-18.1,22.7c-7.1,9-14.7,18.7-22.7,29.1
			c-8.1,10.4-16.3,20.7-24.7,31.1c-8.4,10.4-16.5,20-24.2,28.8c-7.7,8.8-14.6,16.2-20.7,22.2c-6.1,6-10.9,9.7-14.4,11.2
			c-5.8,2.3-11.9,2-18.4-0.9c-6.5-2.9-12.4-7.2-17.6-12.9c-5.2-5.8-9.3-12.3-12.4-19.6c-3.1-7.3-4-14.2-2.9-20.7
			c0.8-6.9,3.5-15.1,8.1-24.5c4.6-9.4,10.4-19.6,17.3-30.5c6.9-10.9,14.5-22.1,22.7-33.4c8.2-11.3,16.6-22.2,25-32.8
			c8.4-10.5,16.7-20.3,24.7-29.3c8.1-9,15.1-16.6,21.3-22.7c3.5-3.5,7.8-4.9,12.9-4.3c5.2,0.6,9.9,2,14.1,4.3
			c4.2,2.3,7.4,5.1,9.5,8.3c2.1,3.3,1.8,6.2-0.9,8.9c-5.4,5.8-12.5,13.9-21.3,24.5c-8.8,10.6-18,22.1-27.6,34.5
			c-9.6,12.5-19.3,25.3-29.1,38.6c-9.8,13.2-18.3,25.5-25.6,36.8c-7.3,11.3-13,20.9-17.3,28.8c-4.2,7.9-5.6,12.8-4,14.7
			c1.5,1.9,5.4,0.7,11.5-3.7c6.1-4.4,13.6-11,22.4-19.9c8.8-8.8,18.7-19.2,29.6-31.1c10.9-11.9,22.2-24.3,33.7-37.1
			c11.5-12.8,22.8-25.6,33.9-38.3c11.1-12.7,21.2-24.1,30.2-34.2c9-10.2,16.8-18.6,23.3-25.3C1079,124.7,1083.2,121,1085.1,120.2z"
			/>
		<path fill="#FFFFFF" d="M1153,84.5c-2.3-0.8-3.6-2.1-4-4c-0.4-1.9,0.1-3.9,1.4-6c1.3-2.1,3.5-3.7,6.3-4.9c2.9-1.2,6.2-1.2,10.1,0
			c6.9,1.9,16.3,3.4,28.2,4.3c11.9,1,25.1,1.6,39.7,2c11.9-14.6,23.4-27.4,34.5-38.6c11.1-11.1,20.9-19.2,29.3-24.2
			c4.2-2.3,9.1-2.6,14.7-0.9c5.6,1.7,10.5,5.1,15,10.1c4.4,5,7.6,11.5,9.5,19.6c1.9,8.1,1.3,17.3-1.7,27.6c17.3-2.3,34-5.3,50.4-8.9
			c16.3-3.6,31.2-8.1,44.6-13.5c7.3-2.7,11.8-2.9,13.5-0.6c1.7,2.3,1.2,6-1.7,10.9c-2.9,5-7.6,10.3-14.1,15.8
			c-6.5,5.6-14.2,10.1-23,13.5c-12.3,4.6-27,8-44.3,10.1c-17.3,2.1-35.7,3.4-55.2,3.7l-1.2,0.6c-0.8,0.4-4.7,3.6-11.8,9.5
			c-7.1,6-15.9,13.4-26.5,22.4c-10.6,9-22,19-34.2,29.9c-12.3,10.9-24.2,21.6-35.7,31.9c-8.4,13.8-16,27.2-22.7,40.3
			c-6.7,13-11.9,25-15.5,36c-3.6,10.9-5.7,20.4-6,28.5c-0.4,8.1,1.5,14,5.8,17.8c2.7,2.7,8.9,1.4,18.7-3.7
			c9.8-5.2,21.3-12.6,34.5-22.2c13.2-9.6,27.2-20.7,42-33.4c14.8-12.7,28.3-25.1,40.6-37.4c6.1-6.1,11.9-10.6,17.3-13.5
			c5.4-2.9,9.4-4.1,12.1-3.7c2.7,0.4,3.7,2.1,3.2,5.2c-0.6,3.1-3.4,7.1-8.3,12.1c-3.5,3.5-8.8,9.2-16.1,17.3
			c-7.3,8.1-15.5,17.1-24.7,27c-9.2,10-19.2,20.3-29.9,31.1c-10.7,10.7-21.1,20.5-31.1,29.3c-10,8.8-19.4,16.1-28.2,21.9
			c-8.8,5.8-16.1,8.6-21.9,8.6s-11.7-2.6-17.8-7.8c-6.1-5.2-11.3-12.4-15.5-21.6c-4.2-9.2-7-20-8.3-32.5c-1.3-12.5-0.1-26,3.7-40.6
			c2.3-9.6,6.4-20.6,12.4-33.1c5.9-12.5,12.9-25.7,21-39.7c8.1-14,17-28.3,26.8-42.9c9.8-14.6,19.9-28.6,30.2-42
			c-12.3-1.5-23.9-3.2-34.8-4.9C1172.8,89.4,1162.6,87.2,1153,84.5z M1262.3,100c-12.7,15.7-24.9,32.6-36.8,50.6l50.1-50.1
			c-1.9-0.4-4-0.6-6.3-0.6C1266.9,100,1264.6,100,1262.3,100z M1302,73c8.4-9.2,13.9-16,16.4-20.4c2.5-4.4,3.2-7.6,2-9.5
			c-1.5-2.3-5.6-0.5-12.1,5.5c-6.5,6-14.8,14.5-24.7,25.6c3.1,0,6.1-0.1,9.2-0.3C1295.9,73.7,1299,73.4,1302,73z"/>
		<path fill="#FFFFFF" d="M1385.5,109.8c2.7-2.7,6.3-3.8,10.9-3.5c4.6,0.4,8.9,1.7,12.9,4c4,2.3,7.2,5.2,9.5,8.6
			c2.3,3.5,2.5,6.5,0.6,9.2c-4.6,6.1-11.6,14.6-21,25.3c-9.4,10.7-19.5,22.4-30.2,34.8c-10.7,12.5-21.7,25.2-32.8,38.3
			c-11.1,13-20.7,25.1-28.8,36.3c-8.1,11.1-14.1,20.4-18.1,27.9s-4.3,12-0.9,13.5c1.9,0.8,7.2-2.1,15.8-8.6
			c8.6-6.5,19-15.2,31.1-26.2c12.1-10.9,25.1-23,39.1-36.3c14-13.2,27.5-26.2,40.6-38.8c13-12.7,24.7-24.1,35.1-34.2
			c10.4-10.2,18-17.6,23-22.2c2.7-2.7,6.1-2.8,10.4-0.3c4.2,2.5,7.9,6,10.9,10.6c3.1,4.6,5.1,9.7,6,15.2c1,5.6-0.3,10.1-3.7,13.5
			c-19.2,19.6-38,41-56.4,64.2c-18.4,23.2-36.2,47.4-53.2,72.5c-17.1,25.1-33.2,50.6-48.3,76.5c-15.2,25.9-28.9,51.3-41.1,76.2
			c-1.9,3.5-4.7,4.6-8.3,3.5c-3.6-1.2-7-3.8-10.1-8.1c-3.1-4.2-5.5-9.9-7.2-17c-1.7-7.1-1.4-15.1,0.9-23.9c1.5-5,6.5-13.8,15-26.5
			c8.4-12.7,18.6-26.9,30.5-42.6c11.9-15.7,24.6-32.2,38.3-49.5c13.6-17.3,26.4-33.2,38.3-47.8c11.9-14.6,22.1-26.8,30.5-36.8
			c8.4-10,13.2-15.7,14.4-17.3c-3.8,3.5-9.5,9.3-17,17.6c-7.5,8.3-16,17.7-25.6,28.2c-9.6,10.6-19.6,21.6-29.9,33.1
			c-10.4,11.5-20.2,22-29.6,31.4c-9.4,9.4-17.8,17.2-25.3,23.3c-7.5,6.1-12.9,9.2-16.4,9.2c-5.4,0-10.3-2.1-14.7-6.3
			c-4.4-4.2-7.9-10-10.4-17.3c-2.5-7.3-3.8-15.9-4-25.9c-0.2-10,1.3-20.5,4.3-31.6c1.9-6.9,7.2-16.8,15.8-29.6
			c8.6-12.8,18.6-26.8,29.9-41.7c11.3-15,23.2-29.7,35.7-44.3C1364.3,132.1,1375.5,119.8,1385.5,109.8z"/>
	</g>
	<g>
		<path fill="#FFFFFF" d="M196.9,601.2c3.8-2.9,11.3-6.7,22.5-11.4c11.2-4.6,24.2-9.6,39.2-14.9c15-5.3,30.9-10.6,47.8-16.1
			c16.9-5.5,32.8-10.4,47.8-14.9c15-4.4,28.3-8,39.9-10.8c11.6-2.7,19.3-4.3,23.1-4.7c4.2-0.4,9.3,0.9,15.2,3.8
			c5.9,3,11.1,6.3,15.5,10.1c4.4,3.8,7.4,7.4,8.9,10.8c1.5,3.4,0.1,5.5-4.1,6.3c-22.4,4.2-43.3,9.2-63,14.9
			c-19.6,5.7-37.6,11.5-54.1,17.4c4.2,5.1,7.4,11,9.5,17.7c2.1,6.8,1,12.2-3.2,16.4c-2.5,2.5-8,9.5-16.4,20.9
			c-8.4,11.4-18.5,25.6-30.1,42.7c-11.6,17.1-24.3,36-38,56.6c-13.7,20.7-27,41.1-39.9,61.4c-12.9,20.2-24.5,39.5-34.8,57.9
			c-10.3,18.3-18.2,33.6-23.7,45.9l38.6-7.6c3.8-0.4,8.4,0.5,13.9,2.8c5.5,2.3,10,5.1,13.6,8.2c3.6,3.2,5.4,6.3,5.4,9.5
			s-3.4,5.4-10.1,6.6c-7.2,1.3-19.5,4.5-37,9.8c-17.5,5.3-36.1,11.1-55.7,17.4c-19.6,6.3-38,12.3-55,18
			c-17.1,5.7-28.6,9.6-34.5,11.7c-5.9,2.1-11.4,1.9-16.4-0.6c-5.1-2.5-9.3-6-12.7-10.4c-3.4-4.4-5.9-8.9-7.6-13.3
			c-1.7-4.4-1.9-7.5-0.6-9.2c2.1-2.5,7.4-5.4,15.8-8.5c8.4-3.2,18.7-6.4,30.7-9.8c12-3.4,25.1-6.6,39.2-9.8
			c14.1-3.2,27.9-6.2,41.4-9.2c-3.4-2.5-6.1-5.8-8.2-9.8c-2.1-4-2.7-8.7-1.9-14.2c0.4-3.8,4.3-12.2,11.7-25.3
			c7.4-13.1,16.8-28.6,28.2-46.5c11.4-17.9,24.2-37.4,38.6-58.5c14.3-21.1,28.5-41.8,42.4-62c13.9-20.2,26.9-39,38.9-56.3
			c12-17.3,21.8-31.2,29.4-41.8c-17.7,7.2-32.2,13.7-43.3,19.6c-11.2,5.9-18.7,10.1-22.5,12.7c-4.2,2.5-9.6,2.8-16.1,0.9
			c-6.5-1.9-12.6-5-18-9.2c-5.5-4.2-9.5-8.8-12-13.6C192.5,608.1,193.2,604.2,196.9,601.2z"/>
		<path fill="#FFFFFF" d="M393.1,648c2.9-2.1,6.9-2.8,11.7-2.2c4.8,0.6,9.4,2.1,13.6,4.4c4.2,2.3,7.5,5,9.8,7.9
			c2.3,3,2.2,5.9-0.3,8.9c-4.2,4.6-9.9,11.5-17.1,20.6c-7.2,9.1-15.3,19.7-24.4,32c-9.1,12.2-18.6,25.6-28.5,40.2
			c-9.9,14.6-19.5,29.4-28.8,44.6c3.4-4.2,8.5-10.4,15.5-18.7c7-8.2,14.8-17.3,23.4-27.2c8.6-9.9,17.9-20.1,27.8-30.7
			c9.9-10.5,19.5-20.1,28.8-28.8c9.3-8.6,17.8-15.9,25.6-21.8c7.8-5.9,14-9.1,18.7-9.5c7.2-0.8,13.3,1.3,18.3,6.3
			c5.1,5.1,8.9,11.2,11.4,18.3c2.5,7.2,3.7,14.6,3.5,22.1c-0.2,7.6-2.2,13.3-6,17.1c-3.8,4.2-9.4,10.8-16.8,19.6
			c-7.4,8.9-15.3,18.7-23.7,29.4c-8.4,10.8-16.9,22-25.3,33.8c-8.4,11.8-15.6,22.6-21.5,32.3c-5.9,9.7-9.9,17.8-12,24.4
			c-2.1,6.5-1.1,10.2,3.2,11.1c5.9,0.9,21.7-8.7,47.5-28.8c25.7-20,57.4-48.8,94.9-86.4c5.5-5.5,10.9-9.6,16.1-12.3
			c5.3-2.7,9.5-4,12.7-3.8c3.2,0.2,4.8,1.7,5.1,4.4c0.2,2.7-2.2,6.6-7.3,11.7c-11,10.5-22.3,22.1-33.8,34.8
			c-11.6,12.7-23.4,25.1-35.4,37.3c-12,12.2-23.9,23.7-35.7,34.5c-11.8,10.8-23.2,19.8-34.2,27.2c-11,7.4-21.4,12.4-31.3,15.2
			c-9.9,2.7-18.9,2.2-26.9-1.6c-8.9-4.2-13.4-11.8-13.6-22.8c-0.2-11,2.8-24.2,9.2-39.9c6.3-15.6,15.4-32.7,27.2-51.2
			c11.8-18.6,25.3-37.5,40.5-56.9c-7.6,3.4-16.6,9.5-26.9,18.3c-10.3,8.9-21,19.2-32,31c-11,11.8-21.9,24.2-32.9,37
			c-11,12.9-21,24.9-30.1,36.1c-9.1,11.2-16.7,20.7-22.8,28.5c-6.1,7.8-9.8,12.3-11.1,13.6c-2.1,2.1-4.7,3.5-7.9,4.1
			c-3.2,0.6-6.4,0.6-9.8,0c-3.4-0.6-6.4-2.1-9.2-4.4c-2.7-2.3-4.7-5.6-6-9.8c-0.8-2.5,1.7-10.1,7.6-22.8
			c5.9-12.7,13.6-27.8,23.1-45.6c9.5-17.7,20.2-36.6,32.3-56.6c12-20,23.6-38.8,34.8-56.3c11.2-17.5,21.2-32.6,30.1-45.2
			C383,658.8,389.3,651,393.1,648z"/>
		<path fill="#FFFFFF" d="M605,856.8c-7.6,17.3-18.3,31.4-32.3,42.4c-13.9,11-28.3,18.4-43,22.5c-14.8,4-28.2,4.3-40.2,1
			c-12-3.4-19.9-10.8-23.7-22.1c-1.7-5.1-1.9-10.8-0.6-17.1c1.3-6.3,3.2-12.1,5.7-17.4c2.5-5.3,5.5-9.6,8.9-13
			c3.4-3.4,6.3-4.4,8.9-3.2c2.5,1.3,4.2,3.4,5.1,6.3c0.9,3,1.9,6.1,3.2,9.5c1.3,3.4,3.5,7,6.6,10.8c3.2,3.8,8.3,7.2,15.5,10.1
			c9.7,4.2,19.4,2.7,29.1-4.4c9.7-7.2,16.7-16.4,20.9-27.8c2.9-8,3.2-16.5,0.6-25.6c-2.5-9.1-5.9-18.3-10.1-27.8
			c-4.2-9.5-8.2-18.7-12-27.5c-3.8-8.9-5.7-16.9-5.7-24c0-8.4,2.8-17.6,8.5-27.5c5.7-9.9,12.9-19.4,21.5-28.5
			c8.6-9.1,18.2-17.5,28.8-25.3c10.5-7.8,21-14,31.3-18.7c10.3-4.6,19.8-7.2,28.5-7.6c8.6-0.4,15.5,1.9,20.6,7
			c3.8,4.2,5.3,9.5,4.4,15.8c-0.9,6.3-3.1,12.9-6.6,19.6c-3.6,6.8-8.3,13.4-14.2,19.9c-5.9,6.5-12,11.9-18.3,16.1
			c-7.6,5.5-17.7,11.2-30.4,17.1c-12.7,5.9-24.5,9.9-35.4,12c2.1,7.2,5.7,14.1,10.8,20.9c5.1,6.8,9.6,14.2,13.6,22.5
			c4,8.2,6.5,17.5,7.6,27.8C613.4,830.8,610.9,842.9,605,856.8z M627.8,691.7c9.3-8,13.4-13.1,12.3-15.2c-1.1-2.1-4.7-1.6-11.1,1.6
			c-6.3,3.2-13.8,8.5-22.5,16.1c-8.7,7.6-16.1,16.9-22.5,27.8c-0.9,0.9-1.4,1.9-1.6,3.2c-0.2,1.3-0.5,2.3-0.9,3.2
			c4.6-3.4,10.8-7.9,18.3-13.6S616.8,701.4,627.8,691.7z"/>
		<path fill="#FFFFFF" d="M810,767c4.6-4.6,9.5-8,14.6-10.1c5.1-2.1,9.2-3.2,12.3-3.2c3.2,0,5,1.2,5.4,3.5c0.4,2.3-1.5,5.6-5.7,9.8
			c-2.1,2.1-6.7,7.2-13.9,15.2c-7.2,8-15.8,17.4-25.9,28.2c-10.1,10.8-21.2,22.3-33.2,34.5c-12,12.2-23.7,23.4-35.1,33.5
			c-11.4,10.1-21.9,18.6-31.6,25.3c-9.7,6.8-17.3,10.1-22.8,10.1c-5.9,0-11.8-1.5-17.7-4.4c-5.9-2.9-11.3-7-16.1-12
			c-4.8-5.1-8.9-11-12-17.7c-3.2-6.7-4.7-14.1-4.7-22.1c0-8,2.6-18.1,7.9-30.4c5.3-12.2,12-25.1,20.2-38.6
			c8.2-13.5,17.3-27.1,27.2-40.8c9.9-13.7,19.4-26.4,28.5-38c9.1-11.6,17.1-21.3,24-29.1c7-7.8,11.5-12.5,13.6-14.2
			c3.8-2.5,8.5-3.3,14.2-2.2c5.7,1.1,11,3.2,15.8,6.3c4.8,3.2,8.4,6.8,10.8,10.8c2.3,4,2,7.7-0.9,11.1c-2.1,2.1-7.2,7.8-15.2,17.1
			c-8,9.3-17.3,20.2-27.8,32.9c-10.5,12.7-21.5,26.3-32.9,40.8c-11.4,14.6-21.4,28.4-30.1,41.4c-8.7,13.1-15.2,24.4-19.6,33.8
			c-4.4,9.5-5,15.7-1.6,18.7c2.1,1.7,7,0.5,14.6-3.5c7.6-4,16.5-9.6,26.9-16.8c10.3-7.2,21.4-15.4,33.2-24.7
			c11.8-9.3,23.1-18.2,33.9-26.9c10.8-8.6,20.1-16.5,28.2-23.7C802.2,774.4,807.5,769.5,810,767z M784.1,632.2
			c-3.4-4.6-4.5-10-3.5-16.1c1-6.1,3.6-12,7.6-17.7c4-5.7,9.1-10.9,15.2-15.5c6.1-4.6,12.4-8.1,19-10.4c6.5-2.3,13-3.1,19.3-2.2
			c6.3,0.8,11.8,4,16.5,9.5c4.6,5.9,6.5,11.8,5.7,17.7c-0.9,5.9-3.6,11.5-8.2,16.8c-4.6,5.3-10.4,9.9-17.4,13.9
			c-7,4-14,7.1-21.2,9.2c-7.2,2.1-13.8,2.8-19.9,2.2C790.9,638.9,786.6,636.4,784.1,632.2z"/>
		<path fill="#FFFFFF" d="M1087.8,538.6c3.4-4.2,7-5.4,10.8-3.5c3.8,1.9,7,5.2,9.5,9.8c2.5,4.6,4,9.8,4.4,15.5
			c0.4,5.7-0.9,10.4-3.8,14.2c-28.7,35-55.6,69.3-80.7,102.8c-25.1,33.5-46.8,63.7-65.2,90.5c-18.3,26.8-32.7,49-43,66.7
			c-10.3,17.7-15.1,28.5-14.2,32.3c0.4,2.1,2.9,1.7,7.6-1.3c4.6-2.9,10.5-7.4,17.7-13.3c7.2-5.9,15.1-12.9,23.7-20.9
			c8.6-8,17.2-16,25.6-24c8.4-8,16.3-15.7,23.7-23.1c7.4-7.4,13.2-13.2,17.4-17.4c5.5-5.5,11.3-9.9,17.4-13.3
			c6.1-3.4,11-5.2,14.6-5.4c3.6-0.2,5.3,1.2,5.1,4.1c-0.2,3-3.7,7.8-10.4,14.6c-9.3,9.3-20.5,21.7-33.5,37.3
			c-13.1,15.6-25.9,31.1-38.6,46.5c-12.7,15.4-24.4,28.9-35.1,40.5c-10.8,11.6-18.3,18-22.5,19.3c-6.3,2.1-12.1,2.1-17.4,0
			c-5.3-2.1-9.8-5.4-13.6-9.8c-3.8-4.4-6.6-9.7-8.5-15.8c-1.9-6.1-2.4-12.3-1.6-18.7c0.8-5.1,2.7-11.1,5.7-18
			c2.9-7,6.2-13.9,9.8-20.9c3.6-7,7.2-13.5,10.8-19.6c3.6-6.1,6.4-10.9,8.5-14.2c-2.1,3-5.4,7.9-9.8,14.9c-4.4,7-9.9,14.9-16.4,23.7
			c-6.5,8.9-13.6,18.1-21.2,27.8c-7.6,9.7-15.3,18.5-23.1,26.3c-7.8,7.8-15.4,14.3-22.8,19.6c-7.4,5.3-14.2,7.9-20.6,7.9
			c-6.7,0-13.5-2.5-20.2-7.6c-6.7-5.1-12.7-11.2-17.7-18.3c-5.1-7.2-8.8-15-11.1-23.4c-2.3-8.4-2.4-16-0.3-22.8
			c2.1-7.2,7-17.2,14.6-30.1c7.6-12.9,16.8-26.8,27.5-41.8c10.8-15,22.8-30.2,36.1-45.6c13.3-15.4,26.8-29.1,40.5-41.1
			c13.7-12,27.2-21.6,40.5-28.8c13.3-7.2,25.4-9.9,36.4-8.2c4.2,0.9,9.3,4.9,15.2,12c5.9,7.2,9.9,15.8,12,25.9
			c22.8-28.3,44.3-55.4,64.5-81.3C1056.1,576.9,1073.4,555.5,1087.8,538.6z M941.6,684.7c-5.1-1.3-12.9,1.9-23.4,9.5
			c-10.5,7.6-22.3,17.6-35.1,30.1c-12.9,12.4-25.8,26.4-38.9,41.8c-13.1,15.4-24.6,30.2-34.5,44.3c-9.9,14.1-17.3,26.7-22.1,37.6
			c-4.8,11-5.4,18.3-1.6,22.1c4.2,4.2,11.7,2.6,22.5-4.7c10.8-7.4,23.5-18.6,38.3-33.5c14.8-15,30.9-32.9,48.4-53.8
			c17.5-20.9,35.5-42.7,54.1-65.5c2.1-7.2,2.6-13.2,1.6-18C949.7,689.7,946.7,686.4,941.6,684.7z"/>
		<path fill="#FFFFFF" d="M1021.3,873.9c3.8,4.2,10.4,5.4,19.9,3.5c9.5-1.9,20.3-5.6,32.6-11.1c12.2-5.5,25.4-12.4,39.5-20.9
			c14.1-8.4,27.8-17.3,41.1-26.6c13.3-9.3,25.6-18.4,37-27.5c11.4-9.1,20.7-17.2,27.8-24.4c5.9-5.9,11.5-10.2,16.8-13
			c5.3-2.7,9.5-4,12.7-3.8c3.2,0.2,4.7,1.8,4.7,4.7c0,3-2.5,7-7.6,12c-16.4,16.5-34.1,33.3-52.8,50.6
			c-18.8,17.3-37.3,33.1-55.7,47.5c-18.3,14.3-35.9,26-52.5,35.1c-16.7,9.1-31.1,13.6-43.3,13.6c-5.9,0-12.4-1.4-19.6-4.1
			c-7.2-2.7-13.7-7-19.6-12.7c-5.9-5.7-10.9-13.1-14.9-22.1c-4-9.1-6-19.9-6-32.6c0-8.4,3.5-19,10.4-31.6
			c7-12.7,15.9-25.9,26.9-39.9c11-13.9,23.2-27.8,36.7-41.8c13.5-13.9,26.9-26.5,40.2-37.6c13.3-11.2,25.8-20.2,37.6-27.2
			c11.8-7,21.3-10.4,28.5-10.4c2.5,0,6.2,0.9,11.1,2.5c4.8,1.7,9.6,4.4,14.2,8.2c4.6,3.8,8.5,8.9,11.7,15.2c3.2,6.3,4.1,14.3,2.8,24
			c-1.3,9.7-5.5,20-12.7,31c-7.2,11-15.7,21.5-25.6,31.6c-9.9,10.1-20,19.3-30.4,27.5c-10.3,8.2-19.1,14.2-26.3,18
			c-12.2,7.2-23.9,9.4-35.1,6.6c-11.2-2.7-20.1-7.7-26.9-14.9c-11,15.6-19,29.8-24,42.7C1015.6,859.3,1015.8,868.4,1021.3,873.9z
			 M1159.9,700.6c-3.4-2.1-9-1-16.8,3.2c-7.8,4.2-16.6,10.5-26.3,19c-9.7,8.4-19.9,18.3-30.7,29.7c-10.8,11.4-20.8,23.2-30.1,35.4
			c6.3,3,13.6,3.1,21.8,0.3c8.2-2.7,16.5-7.1,25-13c8.4-5.9,16.5-12.8,24.4-20.6c7.8-7.8,14.6-15.5,20.2-23.1
			c5.7-7.6,9.7-14.2,12-19.9C1161.9,705.9,1162,702.2,1159.9,700.6z"/>
		<path fill="#FFFFFF" d="M1244.6,847.3c4.6,0,9.1,1.3,13.3,3.8c4.2,2.5,7.6,5.7,10.1,9.5c2.5,3.8,3.8,8,3.8,12.7
			c0,4.6-1.9,9.5-5.7,14.6c-3.8,5.1-8.9,9.2-15.2,12.3c-6.3,3.2-12.9,5.3-19.6,6.3c-6.8,1.1-12.9,1.1-18.3,0
			c-5.5-1-9.1-3.5-10.8-7.3c-2.1-4.2-2.1-9.3,0-15.2c2.1-5.9,5.4-11.6,9.8-17.1c4.4-5.5,9.5-10.1,15.2-13.9
			C1232.9,849.2,1238.7,847.3,1244.6,847.3z M1477.5,585.4c-2.1,1.3-7.9,6.5-17.4,15.8c-9.5,9.3-21,20.7-34.5,34.2
			c-13.5,13.5-28.1,28.3-43.7,44.3c-15.6,16-30.4,31.5-44.3,46.5c-13.9,15-26,28.7-36.4,41.1c-10.3,12.4-17.2,21.6-20.6,27.5
			c-2.1,3.8-4.2,5.7-6.3,5.7c-2.1,0-4-1-5.7-3.2c-1.7-2.1-3-5.2-3.8-9.2c-0.9-4-0.9-7.9,0-11.7c0.8-5.5,4.6-13.7,11.4-24.7
			c6.7-11,15.2-23.3,25.3-37c10.1-13.7,21.1-28,32.9-43c11.8-15,23.6-29.3,35.4-43c11.8-13.7,22.7-25.9,32.6-36.7
			c9.9-10.8,18-18.7,24.4-23.7c4.2-3.8,10.4-5.8,18.7-6c8.2-0.2,15.8,0.6,22.8,2.5c7,1.9,11.8,4.7,14.6,8.5
			C1485.6,577.2,1483.8,581.2,1477.5,585.4z"/>
	</g>
	<g>
		<path fill="#FFFFFF" d="M400,437c1.6-2.1,2.4-4.1,2.2-5.9c-0.1-1.8-1.1-2.6-2.8-2.3c-2.7,0.5-5.7,2.1-8.8,5c-3.1,2.8-6.1,6-9,9.6
			c-2.9,3.6-5.4,7.3-7.8,10.9c-2.3,3.7-4,6.6-5,8.9c-1.7,4-2.7,7.7-2.9,11c-0.2,3.4,0.4,5.9,1.8,7.7c1.6,2,4.4,2.3,8.4,0.8
			c4-1.4,8.5-3.7,13.4-6.9c5-3.2,10-6.8,15.1-11c5.1-4.2,9.5-8.1,13.3-11.9c2.1-2.1,4.1-3.7,5.9-4.7c1.8-1,3.2-1.5,4.2-1.5
			c1,0,1.4,0.5,1.1,1.6c-0.3,1.1-1.4,2.6-3.4,4.6c-3.6,3.6-7.8,7.8-12.6,12.6c-4.8,4.8-9.6,9.4-14.5,13.7
			c-4.9,4.4-9.5,8.2-13.8,11.4c-4.4,3.2-7.9,5.1-10.6,5.6c-2.7,0.5-5.4,0.1-8.1-1.3c-2.7-1.4-5-3.3-7-5.9c-2-2.6-3.5-5.6-4.6-9.2
			c-1.1-3.6-1.3-7.4-0.8-11.4c0.3-2.7,1.2-5.8,3-9.2c1.7-3.4,3.9-6.9,6.4-10.6c2.6-3.6,5.4-7.2,8.6-10.6c3.2-3.5,6.4-6.7,9.7-9.5
			c3.3-2.9,6.6-5.3,9.8-7.3c3.2-2,6.1-3.2,8.6-3.7c1.1-0.2,2.4-0.2,3.9,0c1.5,0.3,2.9,0.7,4.3,1.5c1.4,0.7,2.5,1.8,3.5,3.2
			c0.9,1.4,1.4,3,1.4,4.9c0,2.5-0.8,5.6-2.3,9.3c-1.6,3.7-3.4,7.3-5.4,10.8c-2.1,3.5-4.1,6.5-6.1,9.1c-2,2.6-3.4,3.9-4.3,4
			c-0.9,0.1-1.7-0.3-2.4-1.2s-1.4-2.1-2-3.4s-0.9-2.7-1-4.1c-0.1-1.4,0.1-2.6,0.6-3.5c0.5-0.9,1.2-1.8,2.1-2.8c0.9-1,1.8-2,2.8-3
			c1-1,1.9-1.9,2.8-2.8C398.6,438.6,399.4,437.8,400,437z"/>
		<path fill="#FFFFFF" d="M464.2,424c3.2-1.2,5.9-1,7.9,0.8c2.1,1.8,3.3,4.1,3.8,6.8c8.3-0.4,14.7-1,19.1-1.8
			c4.4-0.8,7.9-1.8,10.6-3.1c1.2-0.5,2.4-0.8,3.5-1c1.1-0.2,1.7-0.1,2.1,0.3c0.3,0.4,0.2,1-0.5,2c-0.6,0.9-2.1,2.2-4.3,3.8
			c-1.6,1.2-3.6,2.4-6.1,3.4c-2.4,1-5,1.9-7.8,2.6c-2.7,0.7-5.6,1.4-8.6,1.9c-3,0.5-5.9,0.7-8.6,0.7c-0.7,3.9-2.1,7.9-4,12.1
			c-1.9,4.2-4.2,8.4-6.9,12.5c-2.7,4.1-5.6,8.1-8.7,11.9c-3.1,3.8-6.3,7.1-9.5,10c-3.2,2.9-6.4,5.1-9.5,6.8
			c-3.1,1.7-5.9,2.5-8.4,2.5c-3.1,0-5.8-0.8-8.1-2.5c-2.3-1.7-4.1-3.8-5.4-6.4s-2.2-5.5-2.6-8.7c-0.4-3.2-0.3-6.3,0.3-9.2
			c0.7-4.1,2.6-8.8,5.5-14c2.9-5.2,6.3-10.2,10-15c3.7-4.8,7.6-9,11.5-12.7c3.9-3.7,7.3-6,10.2-7c1.5-0.5,2.9-0.9,4.2-1.3
			s2.6-0.5,3.8-0.4c1.2,0.1,2.4,0.6,3.5,1.3c1.1,0.7,2.1,1.9,3.1,3.5V424z M420,484.1c1,1.9,2.6,2.5,4.9,1.9c2.2-0.6,4.8-2,7.7-4.2
			c2.9-2.2,5.9-5,9.2-8.4c3.3-3.4,6.5-7.1,9.6-11c3.1-3.9,5.9-7.9,8.5-11.9c2.6-4,4.5-7.7,5.9-11c-4-0.9-6.5-2.3-7.6-4.4
			c-1.1-2.1-1.1-4-0.1-5.7c-2.6,1.5-5.5,3.6-8.7,6.4c-3.2,2.8-6.4,5.9-9.5,9.3c-3.2,3.4-6.2,7-9,10.8c-2.8,3.8-5.2,7.5-7.2,11
			c-2,3.5-3.4,6.8-4.1,9.8C418.8,479.8,419,482.2,420,484.1z"/>
		<path fill="#FFFFFF" d="M504,421c0.9-0.7,2.1-1.2,3.7-1.3c1.6-0.1,3.1,0,4.6,0.5c1.4,0.4,2.6,1.1,3.4,1.9c0.8,0.8,0.8,1.8-0.1,2.9
			c-1,1.4-2.6,3.4-4.8,6.1c-2.2,2.7-4.5,5.8-7.1,9.3c-2.6,3.5-5.2,7.4-7.8,11.5c-2.7,4.1-5.1,8.2-7.2,12.1c1.6-2,3.6-4.4,5.9-7.2
			c2.3-2.8,4.7-5.7,7.3-8.7c2.6-3,5.1-5.9,7.8-8.9c2.6-2.9,5.1-5.6,7.5-7.9c2.4-2.4,4.5-4.4,6.4-6c1.9-1.6,3.3-2.6,4.3-2.8
			c1.5-0.4,2.9-0.1,4.1,0.9c1.2,1,2.2,2.3,3,3.9c0.7,1.6,1.3,3.2,1.6,4.9c0.3,1.6,0.3,2.9-0.1,3.7c-0.4,0.9-1.6,2.9-3.5,6
			c-2,3.1-4.2,6.4-6.5,9.9c-2.7,4.1-5.7,8.5-9,13.3c7.2-8.2,13.8-15.6,19.8-22.2c2.5-2.7,5-5.5,7.6-8.2c2.6-2.7,4.9-5.2,7-7.5
			c2.1-2.2,4-4.1,5.5-5.5c1.6-1.4,2.6-2.3,3.3-2.5c1.2-0.5,2.5-0.3,3.7,0.7c1.2,0.9,2.3,2.2,3.2,3.7c0.9,1.6,1.4,3.2,1.5,5
			c0.1,1.8-0.3,3.3-1.1,4.6c-0.9,1.1-2.2,3.1-4.1,5.8c-1.9,2.7-3.9,5.9-6.2,9.4c-2.2,3.5-4.5,7.3-6.8,11.1
			c-2.3,3.9-4.3,7.5-6.1,10.8c-1.7,3.4-3.1,6.2-4,8.6c-0.9,2.4-1.2,3.8-0.7,4.3c0.4,0.4,1.4,0,3.1-1c1.7-1.1,3.7-2.5,6.2-4.3
			c2.4-1.8,5.1-3.9,7.9-6.3c2.9-2.4,5.7-4.7,8.4-7c2.7-2.3,5.3-4.5,7.6-6.6c2.3-2.1,4.1-3.8,5.3-5c1.9-1.9,3.7-3.3,5.4-4.2
			c1.7-0.9,3.1-1.4,4-1.3c0.9,0.1,1.3,0.6,1.2,1.5c-0.1,0.9-1.1,2.3-2.8,4c-1.1,1.1-2.8,3-5.1,5.5c-2.3,2.6-4.9,5.4-7.8,8.7
			c-2.9,3.2-6,6.6-9.2,10c-3.2,3.4-6.2,6.6-9.2,9.4c-2.9,2.9-5.5,5.2-7.8,7c-2.3,1.8-4,2.7-5,2.7c-1.6,0-3.3-0.5-4.9-1.5
			c-1.7-1-3.2-2.3-4.5-3.9c-1.3-1.6-2.3-3.5-2.9-5.6c-0.6-2.1-0.7-4.2-0.4-6.4c0.6-3.1,2-6.6,4.2-10.5c2.2-3.9,4.5-7.4,7-10.6
			c2.7-3.9,5.8-7.7,9.2-11.6c-1.1,0.5-2.9,1.7-5.4,3.7c-2.5,2-5.3,4.5-8.5,7.4c-3.2,2.9-6.5,6.1-10,9.4c-3.5,3.4-6.8,6.6-9.9,9.8
			c-3.1,3.2-5.9,6.1-8.2,8.7c-2.4,2.6-4,4.5-4.9,5.8c-1.5,2-2.8,2.8-3.8,2.4c-1.1-0.4-1.9-1.2-2.4-2.6c-0.6-1.4-0.9-3-1-4.8
			c-0.1-1.8,0.1-3.2,0.7-4.2c0.4-0.6,1.2-1.8,2.4-3.5c1.2-1.7,2.7-3.8,4.4-6.3c1.7-2.4,3.5-5.1,5.5-7.9c2-2.9,3.9-5.6,5.7-8.3
			c1.8-2.7,3.5-5.2,5-7.5c1.5-2.3,2.7-4.1,3.5-5.5c-4.9,4.1-10,8.7-15.4,13.8c-5.4,5.1-10.6,10.1-15.4,15
			c-4.9,4.9-9.1,9.5-12.8,13.7c-3.7,4.2-6.3,7.5-7.8,9.9c-0.6,1-1.5,1.3-2.5,1c-1.1-0.3-2-1-2.9-2c-0.9-1-1.6-2.2-2.1-3.5
			c-0.5-1.4-0.4-2.7,0.2-3.9c0.4-0.7,1.4-2.7,3.1-5.9c1.7-3.2,3.7-7,6.1-11.5c2.4-4.5,5-9.3,7.9-14.4c2.9-5.1,5.8-10,8.6-14.6
			c2.8-4.6,5.4-8.7,7.9-12.2C500.4,424.8,502.4,422.3,504,421z"/>
		<path fill="#FFFFFF" d="M578.4,484.5c1.1,1.2,3.1,1.6,5.9,1c2.8-0.6,6-1.6,9.6-3.3c3.6-1.6,7.5-3.7,11.7-6.2
			c4.2-2.5,8.2-5.1,12.1-7.8c3.9-2.7,7.6-5.4,10.9-8.1c3.4-2.7,6.1-5.1,8.2-7.2c1.7-1.7,3.4-3,5-3.8c1.6-0.8,2.8-1.2,3.7-1.1
			c0.9,0.1,1.4,0.5,1.4,1.4c0,0.9-0.7,2.1-2.2,3.5c-4.9,4.9-10.1,9.8-15.6,14.9c-5.5,5.1-11,9.8-16.4,14
			c-5.4,4.2-10.6,7.7-15.5,10.4c-4.9,2.7-9.2,4-12.8,4c-1.7,0-3.7-0.4-5.8-1.2c-2.1-0.8-4-2.1-5.8-3.7c-1.7-1.7-3.2-3.9-4.4-6.5
			c-1.2-2.7-1.8-5.9-1.8-9.6c0-2.5,1-5.6,3.1-9.3c2.1-3.7,4.7-7.7,7.9-11.8c3.2-4.1,6.8-8.2,10.8-12.3c4-4.1,7.9-7.8,11.9-11.1
			c3.9-3.3,7.6-6,11.1-8c3.5-2.1,6.3-3.1,8.4-3.1c0.7,0,1.8,0.3,3.3,0.7c1.4,0.5,2.8,1.3,4.2,2.4c1.4,1.1,2.5,2.6,3.5,4.5
			c0.9,1.9,1.2,4.2,0.8,7.1c-0.4,2.9-1.6,5.9-3.7,9.2c-2.1,3.2-4.6,6.4-7.6,9.3c-2.9,3-5.9,5.7-9,8.1c-3.1,2.4-5.6,4.2-7.8,5.3
			c-3.6,2.1-7.1,2.8-10.4,2c-3.3-0.8-5.9-2.3-7.9-4.4c-3.2,4.6-5.6,8.8-7.1,12.6C576.7,480.2,576.8,482.9,578.4,484.5z M619.3,433.3
			c-1-0.6-2.6-0.3-5,0.9c-2.3,1.2-4.9,3.1-7.8,5.6c-2.9,2.5-5.9,5.4-9.1,8.8c-3.2,3.4-6.1,6.9-8.9,10.5c1.9,0.9,4,0.9,6.4,0.1
			c2.4-0.8,4.9-2.1,7.4-3.8c2.5-1.7,4.9-3.8,7.2-6.1c2.3-2.3,4.3-4.6,6-6.8c1.7-2.2,2.9-4.2,3.5-5.9
			C619.9,434.9,619.9,433.8,619.3,433.3z"/>
		<path fill="#FFFFFF" d="M655.3,479.4c-2.2,5.1-5.4,9.3-9.5,12.5c-4.1,3.2-8.3,5.4-12.7,6.6c-4.4,1.2-8.3,1.3-11.9,0.3
			c-3.5-1-5.9-3.2-7-6.5c-0.5-1.5-0.6-3.2-0.2-5s0.9-3.6,1.7-5.1c0.7-1.6,1.6-2.8,2.6-3.8c1-1,1.9-1.3,2.6-0.9s1.2,1,1.5,1.9
			c0.3,0.9,0.6,1.8,0.9,2.8c0.4,1,1,2.1,2,3.2c0.9,1.1,2.5,2.1,4.6,3c2.9,1.2,5.7,0.8,8.6-1.3c2.9-2.1,4.9-4.9,6.2-8.2
			c0.9-2.4,0.9-4.9,0.2-7.6c-0.7-2.7-1.7-5.4-3-8.2c-1.2-2.8-2.4-5.5-3.5-8.1c-1.1-2.6-1.7-5-1.7-7.1c0-2.5,0.8-5.2,2.5-8.1
			c1.7-2.9,3.8-5.7,6.4-8.4c2.6-2.7,5.4-5.2,8.5-7.5c3.1-2.3,6.2-4.1,9.2-5.5c3-1.4,5.9-2.1,8.4-2.2c2.6-0.1,4.6,0.6,6.1,2.1
			c1.1,1.2,1.6,2.8,1.3,4.7c-0.3,1.9-0.9,3.8-2,5.8c-1.1,2-2.5,4-4.2,5.9c-1.7,1.9-3.5,3.5-5.4,4.8c-2.2,1.6-5.2,3.3-9,5
			c-3.7,1.7-7.2,2.9-10.5,3.5c0.6,2.1,1.7,4.2,3.2,6.2c1.5,2,2.8,4.2,4,6.6c1.2,2.4,1.9,5.2,2.2,8.2
			C657.8,471.7,657.1,475.3,655.3,479.4z M662.1,430.7c2.7-2.4,4-3.9,3.6-4.5c-0.3-0.6-1.4-0.5-3.3,0.5c-1.9,0.9-4.1,2.5-6.6,4.8
			c-2.6,2.2-4.8,5-6.6,8.2c-0.3,0.3-0.4,0.6-0.5,0.9c-0.1,0.4-0.2,0.7-0.3,0.9c1.4-1,3.2-2.3,5.4-4
			C656.1,435.8,658.8,433.5,662.1,430.7z"/>
		<path fill="#FFFFFF" d="M783.5,449.2c1.2-0.6,2.3-0.9,3.3-0.8c0.9,0.1,1.5,0.3,1.7,0.8c0.2,0.5,0,1.2-0.7,2.1
			c-0.6,0.9-1.8,1.9-3.5,3c-1.9,1.1-4,2.2-6.3,3.3c-2.3,1.1-4.7,2-7.3,2.7c-2.6,0.7-5.2,1.3-7.9,1.6c-2.7,0.3-5.4,0.3-8,0.1
			c-0.7,4.1-2,8.8-3.8,13.9c-1.8,5.2-4,10.5-6.4,15.9c-2.5,5.4-5.2,10.7-8.1,15.9c-2.9,5.2-5.9,9.8-9,13.8c-3,4-6,7.3-9,9.8
			c-2.9,2.5-5.6,3.7-8.1,3.7c-1.7,0-3.3-0.8-4.6-2.5c-1.3-1.7-2.3-3.8-3-6.4c-0.7-2.6-1.1-5.5-1.2-8.6c-0.1-3.1,0.2-6,0.9-8.8
			c0.5-2.1,1.7-5.4,3.7-9.8c2-4.4,4.5-9.6,7.6-15.5c3.1-5.9,6.5-12.3,10.3-19.2c3.8-6.9,7.8-13.9,11.9-20.8
			c4.1-7,8.3-13.7,12.5-20.3c4.2-6.5,8.2-12.5,12-17.7c3.8-5.3,7.3-9.7,10.4-13.3c3.1-3.5,5.7-5.8,7.8-6.6c2.7-1.1,5.2-1.1,7.3,0
			c2.1,1.1,3.8,2.9,5,5.3c1.2,2.4,1.8,5.3,2,8.5c0.1,3.2-0.4,6.5-1.7,9.7c-0.7,1.9-2.6,4.3-5.7,7.2c-3.1,2.9-6.7,6-10.8,9.2
			c-4.2,3.2-8.6,6.6-13.2,10.1c-4.6,3.5-8.8,6.7-12.7,9.7c1.4,0.6,2.6,1.5,3.8,2.6c1.2,1.1,2,2.4,2.5,3.7v0.6
			c2.4,0.7,4.9,1.2,7.6,1.2c2.7,0.1,5.3-0.1,7.8-0.5c2.6-0.4,5-0.9,7.2-1.5C779.9,450.6,781.8,449.9,783.5,449.2z M709.5,519.8
			c0.5,1.1,1.7,0.8,3.5-1c1.9-1.8,4.1-4.5,6.6-8c2.6-3.5,5.3-7.7,8.3-12.4c3-4.7,5.8-9.5,8.5-14.2c2.7-4.7,5-9.2,7.1-13.5
			c2.1-4.3,3.5-7.8,4.2-10.4c-2.9-1.1-5.1-2.6-6.7-4.3c-4.5,7.5-8.7,14.8-12.7,22c-4,7.2-7.5,13.8-10.5,19.6
			c-3,5.9-5.3,10.8-6.8,14.8C709.5,516.3,709,518.8,709.5,519.8z M785.7,395c-0.6-0.7-1.9-0.3-3.7,1.4c-1.9,1.7-4.1,4.2-6.8,7.7
			c-2.7,3.4-5.7,7.6-9.1,12.4c-3.4,4.9-6.8,10.2-10.5,15.9c4.2-4.1,8.4-8.1,12.5-12c4.1-3.9,7.6-7.6,10.6-10.9
			c2.9-3.4,5.1-6.3,6.4-8.9C786.5,398,786.7,396.1,785.7,395z"/>
		<path fill="#FFFFFF" d="M832,452.9c1.4-1.4,2.9-2.5,4.5-3.3c1.6-0.8,2.9-1.2,3.9-1.2c1,0,1.6,0.3,1.7,1c0.1,0.7-0.6,1.8-2.2,3.5
			c-1.1,1.1-2.8,3-5,5.5c-2.2,2.6-4.7,5.4-7.5,8.6c-2.8,3.2-5.8,6.5-9,10c-3.2,3.5-6.3,6.7-9.3,9.5c-3.1,2.9-5.9,5.2-8.7,7.1
			c-2.7,1.9-5,2.8-6.7,2.8c-1.6,0-3-0.7-4.2-2.1c-1.2-1.4-2.1-3.2-2.9-5.2c-0.7-2.1-1.3-4.1-1.6-6.3c-0.3-2.1-0.5-3.9-0.5-5.4
			c0.1-2.9,1.1-6,2.9-9.5c1.8-3.5,4-7.1,6.5-10.7c2.6-3.7,5.2-7.4,8-11.2c2.8-3.8,5.3-7.5,7.4-11.1c-3,0.1-4.9,0.3-5.6,0.6l-0.7,0.2
			c-0.6,1-2.7,3.9-6.2,8.7c-3.5,4.8-8.7,10.6-15.5,17.5c-3.5,3.5-6.5,6-9,7.7c-2.5,1.6-4.4,2.6-5.7,3c-1.3,0.4-2,0.2-2.1-0.5
			c-0.1-0.7,0.4-1.6,1.7-2.9c8.5-8.5,15-16,19.5-22.6c4.5-6.6,6.9-11.3,7.2-14.2c-0.6-0.6-1.2-1.4-1.9-2.3c-0.6-0.9-1.1-1.9-1.5-3
			c-0.4-1.1-0.6-2.1-0.7-3.2c-0.1-1.1-0.1-2,0.2-2.9c0.5-1.5,1.3-2.7,2.4-3.6c1.1-0.9,2.3-1.6,3.5-2c1.2-0.4,2.4-0.5,3.5-0.3
			s1.9,0.7,2.4,1.4s1.1,1.6,1.8,2.6c0.7,1,1.3,2.1,1.9,3.2c0.6,1.1,1,2.3,1.2,3.5c0.2,1.2,0.2,2.3-0.2,3.5c1.5-0.2,2.8-0.6,3.8-0.9
			c1.1-0.4,2.1-0.9,3.1-1.6c1-0.7,2.1-1.5,3.2-2.5c1.1-1,2.4-2.2,3.9-3.7c1.1-1,2.2-1.2,3.4-0.7c1.1,0.5,2.1,1.4,2.8,2.6
			c0.7,1.2,1.2,2.6,1.5,4.2c0.2,1.6,0.1,2.8-0.6,3.8c-0.6,1-2,2.8-4,5.5c-2.1,2.7-4.4,5.9-7.1,9.5c-2.7,3.7-5.5,7.6-8.5,11.7
			c-3,4.1-5.7,8-8.1,11.7c-2.4,3.7-4.3,6.9-5.7,9.8c-1.4,2.9-1.9,4.8-1.5,5.8c0.2,0.7,1.5,0.5,3.8-0.7c2.3-1.2,5.3-3.3,9-6.1
			c3.7-2.8,7.9-6.3,12.6-10.5C822,462.7,826.9,458,832,452.9z"/>
		<path fill="#FFFFFF" d="M878.2,424c3.2-1.2,5.9-1,7.9,0.8c2.1,1.8,3.3,4.1,3.8,6.8c8.3-0.4,14.7-1,19.1-1.8
			c4.4-0.8,7.9-1.8,10.6-3.1c1.2-0.5,2.4-0.8,3.5-1s1.7-0.1,2.1,0.3c0.3,0.4,0.2,1-0.5,2c-0.6,0.9-2.1,2.2-4.3,3.8
			c-1.6,1.2-3.6,2.4-6.1,3.4c-2.4,1-5,1.9-7.7,2.6c-2.7,0.7-5.6,1.4-8.6,1.9c-3,0.5-5.9,0.7-8.6,0.7c-0.7,3.9-2.1,7.9-4,12.1
			c-1.9,4.2-4.2,8.4-6.9,12.5c-2.7,4.1-5.6,8.1-8.7,11.9c-3.1,3.8-6.3,7.1-9.5,10c-3.2,2.9-6.4,5.1-9.5,6.8
			c-3.1,1.7-5.9,2.5-8.4,2.5c-3.1,0-5.8-0.8-8.1-2.5s-4.1-3.8-5.4-6.4s-2.2-5.5-2.6-8.7c-0.4-3.2-0.3-6.3,0.3-9.2
			c0.7-4.1,2.6-8.8,5.5-14c2.9-5.2,6.3-10.2,10-15c3.7-4.8,7.6-9,11.5-12.7c3.9-3.7,7.3-6,10.2-7c1.5-0.5,2.9-0.9,4.2-1.3
			s2.6-0.5,3.8-0.4c1.2,0.1,2.4,0.6,3.5,1.3c1.1,0.7,2.1,1.9,3.1,3.5V424z M833.9,484.1c1,1.9,2.6,2.5,4.9,1.9
			c2.2-0.6,4.8-2,7.7-4.2c2.9-2.2,5.9-5,9.2-8.4c3.3-3.4,6.5-7.1,9.6-11c3.1-3.9,5.9-7.9,8.5-11.9c2.6-4,4.5-7.7,5.9-11
			c-4-0.9-6.5-2.3-7.6-4.4c-1.1-2.1-1.1-4-0.1-5.7c-2.6,1.5-5.5,3.6-8.7,6.4c-3.2,2.8-6.3,5.9-9.5,9.3c-3.2,3.4-6.2,7-9,10.8
			c-2.8,3.8-5.2,7.5-7.2,11c-2,3.5-3.4,6.8-4.1,9.8C832.8,479.8,832.9,482.2,833.9,484.1z"/>
		<path fill="#FFFFFF" d="M917.9,421c0.9-0.7,2.1-1.2,3.7-1.3c1.6-0.1,3.1,0,4.6,0.5c1.4,0.4,2.6,1.1,3.4,1.9
			c0.8,0.8,0.8,1.8-0.1,2.9c-1,1.4-2.6,3.4-4.8,6.1c-2.2,2.7-4.5,5.8-7.1,9.3c-2.6,3.5-5.2,7.4-7.8,11.5c-2.7,4.1-5.1,8.2-7.2,12.1
			c1.6-2,3.6-4.4,5.9-7.2c2.3-2.8,4.7-5.7,7.3-8.7c2.6-3,5.1-5.9,7.7-8.9c2.6-2.9,5.1-5.6,7.5-7.9c2.4-2.4,4.5-4.4,6.3-6
			c1.9-1.6,3.3-2.6,4.3-2.8c1.5-0.4,2.9-0.1,4.1,0.9c1.2,1,2.2,2.3,3,3.9c0.7,1.6,1.3,3.2,1.6,4.9c0.3,1.6,0.3,2.9-0.1,3.7
			c-0.4,0.9-1.6,2.9-3.5,6c-2,3.1-4.2,6.4-6.5,9.9c-2.7,4.1-5.7,8.5-9,13.3c7.2-8.2,13.8-15.6,19.8-22.2c2.5-2.7,5-5.5,7.6-8.2
			c2.6-2.7,4.9-5.2,7-7.5c2.1-2.2,4-4.1,5.5-5.5c1.6-1.4,2.6-2.3,3.3-2.5c1.2-0.5,2.5-0.3,3.7,0.7c1.2,0.9,2.3,2.2,3.2,3.7
			c0.9,1.6,1.4,3.2,1.5,5c0.1,1.8-0.3,3.3-1.1,4.6c-0.9,1.1-2.2,3.1-4.1,5.8c-1.9,2.7-3.9,5.9-6.2,9.4c-2.2,3.5-4.5,7.3-6.8,11.1
			c-2.3,3.9-4.3,7.5-6.1,10.8c-1.7,3.4-3.1,6.2-4,8.6c-0.9,2.4-1.2,3.8-0.7,4.3c0.4,0.4,1.4,0,3.1-1c1.7-1.1,3.7-2.5,6.2-4.3
			c2.4-1.8,5.1-3.9,7.9-6.3c2.9-2.4,5.7-4.7,8.4-7c2.7-2.3,5.3-4.5,7.6-6.6c2.3-2.1,4.1-3.8,5.3-5c1.9-1.9,3.7-3.3,5.4-4.2
			c1.7-0.9,3.1-1.4,4-1.3c0.9,0.1,1.3,0.6,1.2,1.5c-0.1,0.9-1.1,2.3-2.8,4c-1.1,1.1-2.8,3-5.1,5.5c-2.3,2.6-4.9,5.4-7.8,8.7
			c-2.9,3.2-6,6.6-9.2,10c-3.2,3.4-6.2,6.6-9.2,9.4c-2.9,2.9-5.5,5.2-7.8,7c-2.3,1.8-4,2.7-5,2.7c-1.6,0-3.3-0.5-4.9-1.5
			c-1.7-1-3.2-2.3-4.5-3.9c-1.3-1.6-2.3-3.5-2.9-5.6c-0.6-2.1-0.7-4.2-0.4-6.4c0.6-3.1,2-6.6,4.2-10.5c2.2-3.9,4.5-7.4,7-10.6
			c2.7-3.9,5.8-7.7,9.2-11.6c-1.1,0.5-2.9,1.7-5.4,3.7c-2.5,2-5.3,4.5-8.5,7.4c-3.2,2.9-6.5,6.1-10,9.4c-3.5,3.4-6.8,6.6-9.9,9.8
			c-3.1,3.2-5.9,6.1-8.2,8.7c-2.4,2.6-4,4.5-4.9,5.8c-1.5,2-2.8,2.8-3.8,2.4c-1.1-0.4-1.9-1.2-2.4-2.6c-0.6-1.4-0.9-3-1-4.8
			c-0.1-1.8,0.1-3.2,0.7-4.2c0.4-0.6,1.2-1.8,2.4-3.5c1.2-1.7,2.7-3.8,4.4-6.3c1.7-2.4,3.5-5.1,5.5-7.9c2-2.9,3.9-5.6,5.7-8.3
			c1.8-2.7,3.5-5.2,5-7.5c1.5-2.3,2.7-4.1,3.5-5.5c-4.9,4.1-10,8.7-15.4,13.8c-5.4,5.1-10.6,10.1-15.4,15
			c-4.9,4.9-9.1,9.5-12.8,13.7c-3.7,4.2-6.3,7.5-7.7,9.9c-0.6,1-1.5,1.3-2.5,1c-1.1-0.3-2-1-2.9-2c-0.9-1-1.6-2.2-2.1-3.5
			c-0.5-1.4-0.4-2.7,0.2-3.9c0.4-0.7,1.4-2.7,3.1-5.9c1.7-3.2,3.7-7,6.1-11.5c2.4-4.5,5-9.3,7.9-14.4c2.9-5.1,5.8-10,8.6-14.6
			c2.8-4.6,5.4-8.7,7.9-12.2C914.3,424.8,916.3,422.3,917.9,421z"/>
		<path fill="#FFFFFF" d="M1046.8,408.6c-0.7-0.2-1.2-0.7-1.3-1.3c-0.1-0.6,0-1.3,0.5-2c0.4-0.7,1.1-1.2,2.1-1.6
			c0.9-0.4,2-0.4,3.3,0c2.2,0.6,5.3,1.1,9.2,1.4c3.9,0.3,8.2,0.5,12.9,0.7c3.9-4.7,7.6-8.9,11.2-12.5c3.6-3.6,6.8-6.2,9.5-7.8
			c1.4-0.7,3-0.8,4.8-0.3c1.8,0.6,3.4,1.7,4.9,3.3c1.4,1.6,2.5,3.7,3.1,6.4c0.6,2.6,0.4,5.6-0.6,9c5.6-0.7,11.1-1.7,16.3-2.9
			c5.3-1.2,10.1-2.6,14.5-4.4c2.4-0.9,3.8-0.9,4.4-0.2c0.6,0.7,0.4,1.9-0.6,3.5c-0.9,1.6-2.5,3.3-4.6,5.1c-2.1,1.8-4.6,3.3-7.5,4.4
			c-4,1.5-8.8,2.6-14.4,3.3c-5.6,0.7-11.6,1.1-17.9,1.2l-0.4,0.2c-0.2,0.1-1.5,1.2-3.8,3.1c-2.3,1.9-5.2,4.4-8.6,7.3
			c-3.4,2.9-7.1,6.2-11.1,9.7c-4,3.5-7.8,7-11.6,10.4c-2.7,4.5-5.2,8.8-7.4,13.1c-2.2,4.2-3.9,8.1-5,11.7c-1.2,3.5-1.8,6.6-2,9.2
			c-0.1,2.6,0.5,4.5,1.9,5.8c0.9,0.9,2.9,0.5,6.1-1.2c3.2-1.7,6.9-4.1,11.2-7.2c4.3-3.1,8.8-6.7,13.6-10.8
			c4.8-4.1,9.2-8.2,13.2-12.1c2-2,3.9-3.5,5.6-4.4c1.7-0.9,3.1-1.3,3.9-1.2c0.9,0.1,1.2,0.7,1,1.7c-0.2,1-1.1,2.3-2.7,3.9
			c-1.1,1.1-2.9,3-5.2,5.6c-2.4,2.6-5,5.5-8,8.8c-3,3.2-6.2,6.6-9.7,10.1c-3.5,3.5-6.8,6.7-10.1,9.5c-3.2,2.9-6.3,5.2-9.2,7.1
			c-2.9,1.9-5.2,2.8-7.1,2.8c-1.9,0-3.8-0.8-5.8-2.5s-3.7-4-5-7c-1.4-3-2.3-6.5-2.7-10.6c-0.4-4,0-8.4,1.2-13.2
			c0.7-3.1,2.1-6.7,4-10.7c1.9-4,4.2-8.3,6.8-12.9c2.6-4.5,5.5-9.2,8.7-13.9c3.2-4.7,6.4-9.3,9.8-13.6c-4-0.5-7.8-1-11.3-1.6
			C1053.3,410.2,1049.9,409.5,1046.8,408.6z M1082.3,413.7c-4.1,5.1-8.1,10.6-12,16.4l16.2-16.2c-0.6-0.1-1.3-0.2-2.1-0.2
			S1083.1,413.7,1082.3,413.7z M1095.2,404.9c2.7-3,4.5-5.2,5.3-6.6c0.8-1.4,1-2.5,0.7-3.1c-0.5-0.7-1.8-0.2-3.9,1.8
			c-2.1,1.9-4.8,4.7-8,8.3c1,0,2,0,3-0.1C1093.2,405.1,1094.2,405,1095.2,404.9z"/>
		<path fill="#FFFFFF" d="M1138.9,384.2c1-0.6,2.3-0.7,3.8-0.4c1.6,0.4,3,1,4.2,2c1.2,0.9,2,2.1,2.3,3.4c0.3,1.3-0.2,2.5-1.6,3.6
			c-1.5,1.2-3.5,3.4-6.1,6.4c-2.6,3.1-5.4,6.6-8.5,10.7c-3.1,4.1-6.4,8.5-9.9,13.3c-3.5,4.7-6.8,9.4-10,14.1
			c-3.2,4.7-6.1,9.1-8.7,13.4c-2.6,4.2-4.7,7.8-6.3,10.6c0.5-0.4,1.8-1.6,3.8-3.8c2.1-2.2,4.5-4.8,7.3-7.8c2.8-3,5.9-6.3,9.2-9.7
			c3.4-3.4,6.6-6.7,9.7-9.7c3.1-3,5.9-5.6,8.5-7.8c2.6-2.1,4.5-3.4,5.7-3.7c1.9-0.5,3.8-0.4,5.7,0.4c1.9,0.7,3.6,1.8,4.9,3.2
			c1.4,1.4,2.3,2.8,2.9,4.4c0.6,1.6,0.4,2.9-0.5,4c-0.5,0.6-1.7,2.2-3.6,4.8c-1.9,2.6-4.1,5.6-6.6,9.2c-2.5,3.6-5.1,7.5-7.8,11.8
			c-2.7,4.2-5.1,8.3-7.3,12c-2.2,3.8-3.9,7.2-5.1,10.2c-1.2,3-1.6,5.1-1.1,6.4c0.1,0.5,1,0.2,2.7-0.8c1.7-1.1,3.7-2.6,6.2-4.5
			c2.4-1.9,5.1-4.2,8-6.8c2.9-2.6,5.8-5.2,8.6-7.8c2.8-2.6,5.4-4.9,7.7-7.1c2.3-2.2,4.1-3.9,5.3-5.1c1.9-1.9,3.7-3.2,5.4-4.1
			c1.7-0.9,3.1-1.3,4-1.3c0.9,0,1.3,0.5,1.2,1.4c-0.1,0.9-1.1,2.3-2.8,4c-1.1,1.2-2.8,3.1-5.1,5.6c-2.3,2.5-4.9,5.3-7.8,8.5
			c-2.9,3.2-5.9,6.4-9.1,9.8c-3.1,3.4-6.1,6.4-9.1,9.2c-2.9,2.8-5.5,5.1-7.8,7c-2.3,1.9-4,2.9-5.1,3.2c-1.7,0.4-3.5,0.2-5.3-0.7
			c-1.8-0.8-3.5-2-4.9-3.5c-1.5-1.5-2.7-3.2-3.5-5.2c-0.9-2-1.2-4-1.1-6.2c0.1-3,1.4-6.7,3.8-11.2c2.4-4.5,5.2-9,8.4-13.4
			c3.2-4.5,6.3-8.7,9.4-12.5c3.1-3.9,5.5-6.7,7.1-8.4c-1.6,0.6-3.9,2.1-6.9,4.5c-3,2.4-6.4,5.3-10.2,8.9c-3.8,3.5-7.8,7.4-12,11.7
			c-4.2,4.2-8.2,8.6-12.1,13c-3.9,4.4-7.6,8.8-10.9,13c-3.4,4.2-6.1,8-8.2,11.4c-0.6,1-1.4,1.4-2.4,1.2c-1-0.2-2-0.7-2.9-1.6
			c-0.9-0.9-1.7-2-2.2-3.4c-0.6-1.4-0.7-2.7-0.3-4.1c0.1-0.5,1-2.3,2.7-5.5c1.7-3.2,3.9-7.2,6.6-12c2.7-4.8,5.9-10.2,9.4-16.2
			c3.6-6,7.2-12.1,11-18.3c3.8-6.2,7.6-12.4,11.5-18.4c3.9-6,7.5-11.5,10.8-16.4c3.4-4.9,6.4-9.1,9-12.4
			C1135.6,387.2,1137.6,385,1138.9,384.2z"/>
		<path fill="#FFFFFF" d="M1162.5,484.5c1.1,1.2,3.1,1.6,5.9,1c2.8-0.6,6-1.6,9.6-3.3c3.6-1.6,7.5-3.7,11.7-6.2
			c4.2-2.5,8.2-5.1,12.1-7.8c3.9-2.7,7.6-5.4,10.9-8.1c3.4-2.7,6.1-5.1,8.2-7.2c1.7-1.7,3.4-3,4.9-3.8c1.6-0.8,2.8-1.2,3.7-1.1
			c0.9,0.1,1.4,0.5,1.4,1.4c0,0.9-0.7,2.1-2.2,3.5c-4.9,4.9-10.1,9.8-15.6,14.9c-5.5,5.1-11,9.8-16.4,14
			c-5.4,4.2-10.6,7.7-15.5,10.4c-4.9,2.7-9.2,4-12.8,4c-1.7,0-3.7-0.4-5.8-1.2c-2.1-0.8-4-2.1-5.8-3.7c-1.7-1.7-3.2-3.9-4.4-6.5
			c-1.2-2.7-1.8-5.9-1.8-9.6c0-2.5,1-5.6,3.1-9.3c2.1-3.7,4.7-7.7,7.9-11.8c3.2-4.1,6.8-8.2,10.8-12.3c4-4.1,7.9-7.8,11.9-11.1
			c3.9-3.3,7.6-6,11.1-8s6.3-3.1,8.4-3.1c0.7,0,1.8,0.3,3.3,0.7c1.4,0.5,2.8,1.3,4.2,2.4c1.4,1.1,2.5,2.6,3.5,4.5
			c0.9,1.9,1.2,4.2,0.8,7.1c-0.4,2.9-1.6,5.9-3.7,9.2c-2.1,3.2-4.6,6.4-7.6,9.3c-2.9,3-5.9,5.7-9,8.1c-3.1,2.4-5.6,4.2-7.8,5.3
			c-3.6,2.1-7.1,2.8-10.4,2c-3.3-0.8-5.9-2.3-7.9-4.4c-3.2,4.6-5.6,8.8-7.1,12.6C1160.8,480.2,1160.8,482.9,1162.5,484.5z
			 M1203.4,433.3c-1-0.6-2.6-0.3-5,0.9c-2.3,1.2-4.9,3.1-7.7,5.6c-2.9,2.5-5.9,5.4-9.1,8.8c-3.2,3.4-6.1,6.9-8.9,10.5
			c1.9,0.9,4,0.9,6.4,0.1c2.4-0.8,4.9-2.1,7.4-3.8c2.5-1.7,4.9-3.8,7.2-6.1c2.3-2.3,4.3-4.6,6-6.8c1.7-2.2,2.9-4.2,3.5-5.9
			C1204,434.9,1204,433.8,1203.4,433.3z"/>
	</g>
</g>
</svg>
