<?xml version="1.0" encoding="utf-8"?>
<!-- Generator: Adobe Illustrator 18.0.0, SVG Export Plug-In . SVG Version: 6.00 Build 0)  -->
<!DOCTYPE svg PUBLIC "-//W3C//DTD SVG 1.1//EN" "http://www.w3.org/Graphics/SVG/1.1/DTD/svg11.dtd">
<svg version="1.1" id="Layer_1" xmlns="http://www.w3.org/2000/svg" xmlns:xlink="http://www.w3.org/1999/xlink" x="0px" y="0px"
	 viewBox="0 0 1792 1792" enable-background="new 0 0 1792 1792" xml:space="preserve">
<path d="M1786.2,287.9C1660.5,107.4,1449,5.3,1191.1,0.2C945.2-4.8,684.2,80.5,456.3,239.5C225.8,400.6,48,614.3-43.8,841.7
	c-99.8,247.6-86,483,39.5,662.4c123.9,178,349.5,282.8,618.4,287.7c6.5,0,13.4,0.2,19.9,0.2c251.2,0,708.5-102,1011.7-488.2
	l-137.8,55.6C1162,1612,845.9,1614.8,631,1610.7c-202.9-3.8-382-100.1-468.2-223.8c-84.5-121.2-90.8-287.9-17.4-469.4
	c76.2-188.3,232-374.7,427.6-511.1c193.1-134.5,411-206.6,613.9-202.6c190.8,3.8,344.2,75,431.7,200.3
	c70.1,100.6,94.5,229.1,68.4,361.3c-32.4,163.9-164.7,325-386.9,315.5c-73.6-3.3-153.7-45.2-251.2-132.8
	c-58-52.1-109.9-101.6-145.8-137L1611,432.6h-354.7l-493,264.2l178.5-264H691.2l-555.4,822.2h250l236.4-349.6h86.8
	c20.9,21.3,102.4,103.8,204.4,195.1c134.8,120.4,255.2,179,378.4,184.3c153.9,6.5,293.4-41.8,404.1-139.5
	c97.5-86.5,165.7-207.4,191.8-340.2C1924.5,618.5,1888.5,434.5,1786.2,287.9z"/>
</svg>
