<?xml version="1.0" encoding="utf-8"?>
<!-- Generator: Adobe Illustrator 18.0.0, SVG Export Plug-In . SVG Version: 6.00 Build 0)  -->
<!DOCTYPE svg PUBLIC "-//W3C//DTD SVG 1.1//EN" "http://www.w3.org/Graphics/SVG/1.1/DTD/svg11.dtd">
<svg version="1.1" id="Layer_1" xmlns="http://www.w3.org/2000/svg" xmlns:xlink="http://www.w3.org/1999/xlink" x="0px" y="0px"
	 viewBox="0 0 1792 1792" enable-background="new 0 0 1792 1792" xml:space="preserve">
<path d="M1689.2,354.1C1577.1,193.3,1388.8,102.3,1159,97.8C940,93.4,707.5,169.3,504.3,311C298.8,454.3,140.6,644.8,58.8,847.5
	c-89.1,220.7-76.7,430.4,34.9,590.4c110.5,158.5,311.4,251.9,551.1,256.3c5.9,0.1,11.8,0.2,17.7,0.2c223.8,0,631.2-90.9,901.4-434.9
	l-122.8,49.5c-308.2,225.1-589.8,227.5-781.2,224.1c-180.8-3.3-340.3-89.1-417.1-199.3c-75.3-108-80.8-256.5-15.5-418.3
	C295.2,747.7,434,581.8,608.3,460.2c172-119.9,366.3-184.1,547.1-180.6c170,3.3,306.6,66.7,384.6,178.5
	c62.6,89.7,84.2,204.1,60.9,322c-28.9,146.1-146.7,289.7-344.7,281.2c-65.6-2.8-136.8-40.4-223.8-118.2
	c-51.8-46.3-97.8-90.5-130-122.1l630.5-337.3h-316L777.6,718.8l159.1-235.2H713.3l-494.8,732.5h222.7l210.6-311.3l77.3-0.1
	c18.6,19.1,91.1,92.5,182.1,173.9c120.1,107.4,227.3,159.6,337.2,164.3c137.1,5.8,261.5-37.2,359.9-124.4
	c86.9-77,147.6-184.7,171-303.1C1812.3,648.6,1780.3,484.8,1689.2,354.1z"/>
</svg>
